<svg width="40" height="40" viewBox="0 0 40 40" fill="none" xmlns="http://www.w3.org/2000/svg">
<rect width="40" height="40" rx="20" fill="white"/>
<path d="M23.4024 29V22.0344H25.7347L26.0838 19.3265H23.4024V17.5976C23.4024 16.8136 23.62 16.2793 24.7443 16.2793L26.1783 16.2787V13.8568C25.9302 13.8238 25.0791 13.7501 24.0888 13.7501C22.0213 13.7501 20.606 15.012 20.606 17.3295V19.3265H18.2677V22.0344H20.606V29H12C11.4477 29 11 28.5523 11 28V12C11 11.4477 11.4477 11 12 11H28C28.5523 11 29 11.4477 29 12V28C29 28.5523 28.5523 29 28 29H23.4024Z" fill="#000C1A"/>
</svg>
