<svg width="40" height="40" viewBox="0 0 40 40" fill="none" xmlns="http://www.w3.org/2000/svg">
<rect width="40" height="40" rx="20" fill="white"/>
<path d="M21.6388 8.11331C15.7035 7.29522 10.0745 10.982 8.45086 16.751C6.8272 22.52 9.7065 28.6029 15.1967 31.0026C15.1246 30.0808 15.1902 29.1535 15.3914 28.2512C15.6129 27.2448 16.9467 21.6958 16.9467 21.6958C16.6809 21.1007 16.548 20.4547 16.5572 19.803C16.5572 18.021 17.5854 16.6915 18.8647 16.6915C19.3296 16.6846 19.7747 16.8803 20.0839 17.2277C20.3931 17.5752 20.536 18.04 20.4753 18.5011C20.4753 19.5814 19.7813 21.2157 19.4203 22.7483C19.2747 23.3186 19.4087 23.9243 19.7814 24.3799C20.1541 24.8354 20.7211 25.0866 21.3088 25.0566C23.5858 25.0566 25.1134 22.1389 25.1134 18.6951C25.1134 16.0544 23.3643 14.0786 20.1421 14.0786C18.5843 14.0183 17.0699 14.5995 15.952 15.6865C14.8341 16.7735 14.2105 18.2713 14.2266 19.8307C14.1923 20.6866 14.4683 21.526 15.0038 22.1944C15.2097 22.3476 15.2892 22.6189 15.1985 22.8592C15.1431 23.0807 15.0038 23.607 14.9484 23.8009C14.925 23.9335 14.8402 24.0473 14.7197 24.1073C14.5991 24.1674 14.4573 24.1668 14.3373 24.1056C12.6759 23.4408 11.8932 21.6126 11.8932 19.5261C11.8932 16.1098 14.7545 12.0196 20.4772 12.0196C25.0322 12.0196 28.0597 15.3527 28.0597 18.9166C28.0597 23.607 25.4485 27.134 21.5885 27.134C20.416 27.1712 19.3058 26.6072 18.6441 25.6382C18.6441 25.6382 17.95 28.4174 17.8133 28.9436C17.5344 29.8518 17.1226 30.7136 16.5913 31.5012C17.6984 31.837 18.8496 32.0052 20.0065 31.9999C23.1889 32.0019 26.2417 30.738 28.4915 28.4863C30.7414 26.2347 32.0036 23.1804 32 19.9969C31.9965 14.0036 27.5741 8.93139 21.6388 8.11331Z" fill="#000C1A"/>
</svg>
