<svg width="40" height="40" viewBox="0 0 40 40" fill="none" xmlns="http://www.w3.org/2000/svg">
<rect width="40" height="40" rx="20" fill="white"/>
<path d="M21.233 8C22.5835 8.00223 23.2679 8.00937 23.8593 8.02698L24.0922 8.0346C24.3613 8.04416 24.6267 8.05616 24.9468 8.07116C26.2237 8.13016 27.0948 8.33217 27.8599 8.62918C28.6508 8.93418 29.3189 9.34621 29.9859 10.0132C30.6519 10.6802 31.064 11.3503 31.37 12.1393C31.6659 12.9033 31.868 13.7754 31.928 15.0524C31.9423 15.3724 31.9538 15.6379 31.9633 15.907L31.9708 16.1399C31.9884 16.7312 31.9964 17.4157 31.9989 18.7662L31.9999 19.6611C32 19.7704 32 19.8832 32 19.9996L31.9999 20.3381L31.9992 21.233C31.9969 22.5835 31.9898 23.2679 31.9722 23.8593L31.9645 24.0922C31.955 24.3613 31.943 24.6267 31.928 24.9468C31.869 26.2237 31.6659 27.0948 31.37 27.8599C31.0649 28.6508 30.6519 29.3189 29.9859 29.9859C29.3189 30.6519 28.6478 31.064 27.8599 31.37C27.0948 31.6659 26.2237 31.868 24.9468 31.928C24.6267 31.9423 24.3613 31.9538 24.0922 31.9633L23.8593 31.9708C23.2679 31.9884 22.5835 31.9964 21.233 31.9989L20.3381 31.9999C20.2288 32 20.116 32 19.9996 32L19.6611 31.9999L18.7662 31.9992C17.4157 31.9969 16.7312 31.9898 16.1399 31.9722L15.907 31.9645C15.6379 31.955 15.3724 31.943 15.0524 31.928C13.7754 31.869 12.9053 31.6659 12.1393 31.37C11.3493 31.0649 10.6802 30.6519 10.0132 29.9859C9.34621 29.3189 8.93519 28.6478 8.62918 27.8599C8.33217 27.0948 8.13116 26.2237 8.07116 24.9468C8.05691 24.6267 8.04528 24.3613 8.03586 24.0922L8.02831 23.8593C8.01075 23.2679 8.00275 22.5835 8.00016 21.233L8 18.7662C8.00223 17.4157 8.00937 16.7312 8.02698 16.1399L8.0346 15.907C8.04416 15.6379 8.05616 15.3724 8.07116 15.0524C8.13016 13.7744 8.33217 12.9043 8.62918 12.1393C8.93418 11.3493 9.34621 10.6802 10.0132 10.0132C10.6802 9.34621 11.3503 8.93519 12.1393 8.62918C12.9043 8.33217 13.7744 8.13116 15.0524 8.07116C15.3724 8.05691 15.6379 8.04528 15.907 8.03586L16.1399 8.02831C16.7312 8.01075 17.4157 8.00275 18.7662 8.00016L21.233 8ZM19.9996 13.9994C16.684 13.9994 13.9994 16.6869 13.9994 19.9996C13.9994 23.3152 16.6869 25.9998 19.9996 25.9998C23.3152 25.9998 25.9998 23.3122 25.9998 19.9996C25.9998 16.684 23.3122 13.9994 19.9996 13.9994ZM19.9996 16.3994C21.9879 16.3994 23.5997 18.0106 23.5997 19.9996C23.5997 21.9879 21.9884 23.5997 19.9996 23.5997C18.0112 23.5997 16.3994 21.9884 16.3994 19.9996C16.3994 18.0112 18.0106 16.3994 19.9996 16.3994ZM26.2998 12.1993C25.4726 12.1993 24.7998 12.8712 24.7998 13.6983C24.7998 14.5255 25.4717 15.1984 26.2998 15.1984C27.1269 15.1984 27.7999 14.5265 27.7999 13.6983C27.7999 12.8712 27.1258 12.1983 26.2998 12.1993Z" fill="#000C1A"/>
</svg>
