<svg width="40" height="40" viewBox="0 0 40 40" fill="none" xmlns="http://www.w3.org/2000/svg">
<rect width="40" height="40" rx="20" fill="white"/>
<path d="M20 8C26.6274 8 32 13.3726 32 20C32 26.6274 26.6274 32 20 32C17.7993 32 15.737 31.4077 13.9639 30.3736L8.00502 32L9.62737 26.0378C8.59275 24.2643 8 22.2014 8 20C8 13.3726 13.3726 8 20 8ZM15.6696 14.37C15.5143 14.3809 15.3621 14.4188 15.2235 14.4897C15.1195 14.5429 15.023 14.6198 14.8713 14.763C14.7281 14.8983 14.6451 15.0164 14.5577 15.1302C14.114 15.7078 13.8756 16.4169 13.88 17.1452C13.8824 17.7339 14.0353 18.3061 14.2769 18.8403C14.7666 19.9237 15.5743 21.069 16.6412 22.1311C16.8974 22.3862 17.1485 22.6441 17.4192 22.8824C18.7434 24.0483 20.3214 24.889 22.0277 25.3378C22.0277 25.3378 22.6997 25.441 22.7095 25.4416C22.9321 25.4536 23.1543 25.4376 23.3772 25.4262C23.7267 25.4082 24.068 25.3136 24.3769 25.1491C24.5755 25.0434 24.6695 24.9908 24.8361 24.8857C24.8361 24.8857 24.8873 24.8511 24.9859 24.7777C25.1479 24.657 25.248 24.572 25.3827 24.4321C25.4821 24.3289 25.5675 24.207 25.6335 24.0696C25.7274 23.8737 25.8218 23.4999 25.8594 23.1895C25.8881 22.9524 25.8794 22.8228 25.8763 22.7425C25.8711 22.6134 25.7645 22.4805 25.6476 22.4241L24.9498 22.1104C24.9498 22.1104 23.9064 21.6564 23.2682 21.3652C23.2017 21.3349 23.129 21.3208 23.0559 21.3164C22.8959 21.3066 22.7165 21.3483 22.6023 21.4686C22.5963 21.4662 22.5169 21.5348 21.6487 22.5866C21.6008 22.6438 21.4886 22.7683 21.2946 22.7566C21.2653 22.7546 21.2361 22.7504 21.2077 22.743C21.1291 22.7222 21.0525 22.6948 20.9777 22.6632C20.8292 22.6002 20.7771 22.5763 20.6757 22.5326C19.983 22.23 19.3472 21.8251 18.7853 21.3296C18.6345 21.1969 18.4944 21.054 18.3499 20.9139C17.8457 20.4252 17.4329 19.9053 17.1257 19.3926C17.109 19.3646 17.0831 19.3242 17.0553 19.2789C17.0051 19.1972 16.9497 19.1 16.9323 19.0333C16.8877 18.8568 17.006 18.7149 17.006 18.7149C17.006 18.7149 17.2981 18.3956 17.4338 18.222C17.5644 18.0548 17.6771 17.8914 17.7488 17.7748C17.8902 17.5476 17.9349 17.3127 17.8607 17.1316C17.524 16.3108 17.1766 15.4944 16.8187 14.6827C16.748 14.5225 16.5378 14.4062 16.3467 14.3841C16.282 14.3766 16.2173 14.3691 16.1523 14.3648C15.9915 14.357 15.8303 14.3587 15.6696 14.37Z" fill="#000C1A"/>
</svg>
