<svg width="40" height="40" viewBox="0 0 40 40" fill="none" xmlns="http://www.w3.org/2000/svg">
<rect width="40" height="40" rx="20" fill="white"/>
<path d="M20.2932 12C20.9342 12.0029 22.5378 12.0159 24.2417 12.0727L24.8458 12.0947C26.5612 12.1624 28.2753 12.278 29.1254 12.4755C30.2593 12.741 31.1506 13.5156 31.4518 14.4974C31.9315 16.0566 31.9915 19.0997 31.9989 19.8362L32 19.9888V19.9995C32 19.9995 32 20.0032 32 20.0103L31.9989 20.1629C31.9915 20.8993 31.9315 23.9424 31.4518 25.5016C31.1464 26.4871 30.2551 27.2617 29.1254 27.5235C28.2753 27.721 26.5612 27.8366 24.8458 27.9043L24.2417 27.9262C22.5378 27.9831 20.9342 27.996 20.2932 27.999L20.0119 27.9998H19.9995C19.9995 27.9998 19.9953 27.9998 19.987 27.9998L19.7059 27.999C18.3494 27.9928 12.6775 27.9417 10.8735 27.5235C9.7396 27.258 8.84834 26.4835 8.54707 25.5016C8.06744 23.9424 8.00749 20.8993 8 20.1629V19.8362C8.00749 19.0997 8.06744 16.0566 8.54707 14.4974C8.85252 13.5119 9.74377 12.7374 10.8735 12.4755C12.6775 12.0572 18.3494 12.0062 19.7059 12H20.2932ZM17.5994 16.4993V23.4996L24.7997 19.9995L17.5994 16.4993Z" fill="#000C1A"/>
</svg>
