<svg width="52" height="53" viewBox="0 0 52 53" fill="none" xmlns="http://www.w3.org/2000/svg">
<circle cx="26" cy="26.5" r="26" fill="#F5F5F5"/>
<path d="M32 16.1011C32.5523 16.1011 33 16.5488 33 17.1011L33.0009 25.6297C31.9393 24.6791 30.5371 24.1011 29 24.1011C25.6863 24.1011 23 26.7874 23 30.1011C23 33.3395 25.76 36.1011 29 36.1011H20C19.4477 36.1011 19 35.6534 19 35.1011V17.1011C19 16.5488 19.4477 16.1011 20 16.1011H32ZM29 26.1011C31.2091 26.1011 33 27.892 33 30.1011C33 30.8429 32.7981 31.5376 32.4462 32.1331L34.6569 34.3437L33.2426 35.758L31.032 33.5473C30.4365 33.8992 29.7418 34.1011 29 34.1011C26.7909 34.1011 25 32.3102 25 30.1011C25 27.892 26.7909 26.1011 29 26.1011ZM29 28.1011C27.8954 28.1011 27 28.9965 27 30.1011C27 31.2057 27.8954 32.1011 29 32.1011C30.1046 32.1011 31 31.2057 31 30.1011C31 28.9965 30.1046 28.1011 29 28.1011Z" fill="#0078FF"/>
</svg>
