<svg width="52" height="53" viewBox="0 0 52 53" fill="none" xmlns="http://www.w3.org/2000/svg">
<circle cx="26" cy="26.5" r="26" fill="#F5F5F5"/>
<path d="M24.6144 31.8967L25.492 29.8865C26.2731 28.0977 27.6789 26.6737 29.4325 25.8953L31.8482 24.823C32.6162 24.4821 32.6162 23.3648 31.8482 23.0238L29.5079 21.985C27.7092 21.1866 26.2782 19.7099 25.5105 17.86L24.6215 15.7178C24.2916 14.9228 23.1932 14.9228 22.8633 15.7178L21.9743 17.86C21.2066 19.7099 19.7755 21.1866 17.9768 21.985L15.6366 23.0238C14.8685 23.3648 14.8685 24.4821 15.6366 24.823L18.0523 25.8953C19.8059 26.6737 21.2117 28.0977 21.9927 29.8865L22.8704 31.8967C23.2078 32.6693 24.277 32.6693 24.6144 31.8967ZM33.4014 36.791L33.6482 36.2253C34.0882 35.2167 34.8807 34.4136 35.8695 33.9743L36.6299 33.6364C37.0412 33.4537 37.0412 32.856 36.6299 32.6733L35.9121 32.3543C34.8978 31.9037 34.0911 31.0709 33.6586 30.028L33.4052 29.4167C33.2285 28.9907 32.6395 28.9907 32.4628 29.4167L32.2094 30.028C31.777 31.0709 30.9703 31.9037 29.956 32.3543L29.2381 32.6733C28.8269 32.856 28.8269 33.4537 29.2381 33.6364L29.9985 33.9743C30.9874 34.4136 31.7798 35.2167 32.2198 36.2253L32.4667 36.791C32.6473 37.2051 33.2207 37.2051 33.4014 36.791Z" fill="#0078FF"/>
</svg>
