<svg width="53" height="53" viewBox="0 0 53 53" fill="none" xmlns="http://www.w3.org/2000/svg">
<circle cx="26.5" cy="26.5" r="26" fill="#F5F5F5"/>
<path d="M17 18.4934C17 17.9448 17.4553 17.5 17.9918 17.5H36.0082C36.556 17.5 37 17.945 37 18.4934V34.5066C37 35.0552 36.5447 35.5 36.0082 35.5H17.9918C17.4441 35.5 17 35.0551 17 34.5066V18.4934ZM19 19.5V21.5H21V19.5H19ZM33 19.5V21.5H35V19.5H33ZM19 23.5V25.5H21V23.5H19ZM33 23.5V25.5H35V23.5H33ZM19 27.5V29.5H21V27.5H19ZM33 27.5V29.5H35V27.5H33ZM19 31.5V33.5H21V31.5H19ZM33 31.5V33.5H35V31.5H33Z" fill="#0078FF"/>
</svg>
