<svg width="53" height="53" viewBox="0 0 53 53" fill="none" xmlns="http://www.w3.org/2000/svg">
<circle cx="26.5" cy="26.5" r="26" fill="#F5F5F5"/>
<path d="M28 35.5V38L25 36L22 38V35.5H21.5C19.567 35.5 18 33.933 18 32V19.5C18 17.8432 19.3432 16.5 21 16.5H35C35.5523 16.5 36 16.9477 36 17.5V34.5C36 35.0523 35.5523 35.5 35 35.5H28ZM22 33.5V31.5H28V33.5H34V30.5H21.5C20.6716 30.5 20 31.1716 20 32C20 32.8284 20.6716 33.5 21.5 33.5H22ZM22 19.5V21.5H24V19.5H22ZM22 22.5V24.5H24V22.5H22ZM22 25.5V27.5H24V25.5H22Z" fill="#0078FF"/>
</svg>
