<svg width="53" height="53" viewBox="0 0 53 53" fill="none" xmlns="http://www.w3.org/2000/svg">
<circle cx="26.5" cy="26.5" r="26" fill="#F5F5F5"/>
<path d="M26 16.5C30.0675 16.5 33.426 19.5356 33.9337 23.4649L36.1842 27.0037C36.3324 27.2367 36.3025 27.5847 35.9593 27.7317L34 28.571V31.5C34 32.6046 33.1046 33.5 32 33.5H30.001L30 36.5H21L21.0002 32.8061C21.0003 31.6252 20.5635 30.5087 19.7555 29.5011C18.6571 28.1313 18 26.3924 18 24.5C18 20.0817 21.5817 16.5 26 16.5ZM26 21.5C25.4477 21.5 25 21.9477 25 22.5V23.499L24 23.5C23.4477 23.5 23 23.9477 23 24.5C23 25.0523 23.4477 25.5 24 25.5L25 25.499V26.5C25 27.0523 25.4477 27.5 26 27.5C26.5523 27.5 27 27.0523 27 26.5V25.5H28C28.5523 25.5 29 25.0523 29 24.5C29 23.9477 28.5523 23.5 28 23.5H27V22.5C27 21.9477 26.5523 21.5 26 21.5Z" fill="#0078FF"/>
</svg>
