<svg width="53" height="52" viewBox="0 0 53 52" fill="none" xmlns="http://www.w3.org/2000/svg">
<circle cx="26.5" cy="26" r="26" fill="#F5F5F5"/>
<path d="M30 30C31.6569 30 33 31.3431 33 33C33 34.6569 31.6569 36 30 36C28.3431 36 27 34.6569 27 33C27 31.3431 28.3431 30 30 30ZM20 26C22.2091 26 24 27.7909 24 30C24 32.2091 22.2091 34 20 34C17.7909 34 16 32.2091 16 30C16 27.7909 17.7909 26 20 26ZM28.5 16C31.5376 16 34 18.4624 34 21.5C34 24.5376 31.5376 27 28.5 27C25.4624 27 23 24.5376 23 21.5C23 18.4624 25.4624 16 28.5 16Z" fill="#0078FF"/>
</svg>
