<svg width="1450" height="1336" viewBox="0 0 1450 1336" fill="none" xmlns="http://www.w3.org/2000/svg">
<g opacity="0.24" filter="url(#filter0_f_135_207)">
<circle cx="826.401" cy="623.401" r="288" transform="rotate(140.527 826.401 623.401)" fill="#80BBFF"/>
</g>
<path d="M780.983 1222.63H602.461V1149.79L768.21 1129.57L780.983 1157.68V1222.63Z" fill="#2E353A"/>
<path d="M627.053 1002.19H394.209V1222.63H627.053V1002.19Z" fill="#2E353A"/>
<path d="M379.873 1020.01L369.963 1009.76L511.932 922.25L651.301 1008.18L641.412 1018.42L511.932 938.595L379.873 1020.01Z" fill="#2E353A"/>
<path d="M584.45 1002.19H351.605V1222.63H584.45V1002.19Z" fill="white" stroke="#2E353A" stroke-width="0.887535" stroke-linecap="round" stroke-linejoin="round"/>
<path d="M468.028 930.424L351.605 1002.19H584.45L468.028 930.424Z" fill="white" stroke="#2E353A" stroke-width="0.887535" stroke-linejoin="round"/>
<g style="mix-blend-mode:multiply">
<path d="M468.028 930.424L351.605 1002.19V1018.54L378.127 1002.19L468.028 946.769L557.949 1002.19L584.45 1018.54V1002.19L468.028 930.424Z" fill="#80BBFF"/>
</g>
<path d="M762.992 1149.79H584.449V1222.63H762.992V1149.79Z" fill="white" stroke="#2E353A" stroke-width="0.887535" stroke-linecap="round" stroke-linejoin="round"/>
<path d="M744.998 1149.79H602.461V1222.63H744.998V1149.79Z" fill="#80BBFF" stroke="#2E353A" stroke-width="0.887535" stroke-linecap="round" stroke-linejoin="round"/>
<g style="mix-blend-mode:multiply">
<path d="M762.992 1149.79H584.449V1165.4H762.992V1149.79Z" fill="#80BBFF"/>
</g>
<path d="M602.461 1171.11H744.978" stroke="#2E353A" stroke-width="0.887535" stroke-linecap="round" stroke-linejoin="round"/>
<path d="M602.461 1181.89H744.978" stroke="#2E353A" stroke-width="0.887535" stroke-linecap="round" stroke-linejoin="round"/>
<path d="M602.461 1192.68H744.978" stroke="#2E353A" stroke-width="0.887535" stroke-linecap="round" stroke-linejoin="round"/>
<path d="M602.461 1203.46H744.978" stroke="#2E353A" stroke-width="0.887535" stroke-linecap="round" stroke-linejoin="round"/>
<path d="M602.461 1214.24H744.978" stroke="#2E353A" stroke-width="0.887535" stroke-linecap="round" stroke-linejoin="round"/>
<path d="M417.625 1141.16H370.816V1222.63H417.625V1141.16Z" fill="#2E353A"/>
<path d="M489.025 1141.16H442.217V1197.7H489.025V1141.16Z" fill="white" stroke="#2E353A" stroke-width="0.887535" stroke-linecap="round" stroke-linejoin="round"/>
<path d="M489.025 1167.04H442.217V1171.84H489.025V1167.04Z" fill="#2E353A"/>
<path d="M468.636 1141.16H462.625V1197.7H468.636V1141.16Z" fill="#2E353A"/>
<path d="M574.844 1141.16H528.035V1197.7H574.844V1141.16Z" fill="white" stroke="#2E353A" stroke-width="0.887535" stroke-linecap="round" stroke-linejoin="round"/>
<path d="M574.844 1167.04H528.035V1171.84H574.844V1167.04Z" fill="#2E353A"/>
<path d="M554.454 1141.16H548.443V1197.7H554.454V1141.16Z" fill="#2E353A"/>
<path d="M514.531 1141.16H505.555V1222.63H514.531V1141.16Z" fill="white" stroke="#2E353A" stroke-width="0.887535" stroke-linecap="round" stroke-linejoin="round"/>
<path d="M436.064 1141.16H427.088V1222.63H436.064V1141.16Z" fill="white" stroke="#2E353A" stroke-width="0.887535" stroke-linecap="round" stroke-linejoin="round"/>
<path d="M574.844 1144.52H362.408V1155.06H574.844V1144.52Z" fill="#2E353A"/>
<path d="M574.844 1139.25H362.408V1149.79H574.844V1139.25Z" fill="#80BBFF" stroke="#2E353A" stroke-width="0.887535" stroke-linecap="round" stroke-linejoin="round"/>
<path d="M335.969 1020.01L326.059 1009.76L468.028 922.25L607.397 1008.18L597.507 1018.42L468.028 938.595L335.969 1020.01Z" fill="white" stroke="#2E353A" stroke-width="0.887535" stroke-linejoin="round"/>
<path d="M762.992 1160.33H566.701L584.714 1117.92H770.181L762.992 1160.33Z" fill="#2E353A"/>
<path d="M607.397 1008.18H647.605L511.932 922.25H468.027L607.397 1008.18Z" fill="#2E353A"/>
<path d="M597.508 1018.43H641.412L651.302 1008.18H607.397L597.508 1018.43Z" fill="#2E353A"/>
<path d="M396.018 1034.79H370.816V1067.38H396.018V1034.79Z" fill="white" stroke="#2E353A" stroke-width="0.887535" stroke-linecap="round" stroke-linejoin="round"/>
<path d="M396.018 1051.08H370.816V1067.38H396.018V1051.08Z" fill="#2E353A"/>
<path d="M396.018 1049.27H370.816V1052.9H396.018V1049.27Z" fill="white" stroke="#2E353A" stroke-width="0.887535" stroke-linecap="round" stroke-linejoin="round"/>
<path d="M396.018 1081.75H370.816V1114.34H396.018V1081.75Z" fill="white" stroke="#2E353A" stroke-width="0.887535" stroke-linecap="round" stroke-linejoin="round"/>
<path d="M396.018 1097.88H370.816V1114.32H396.018V1097.88Z" fill="#2E353A"/>
<path d="M566.436 1034.79H541.234V1067.38H566.436V1034.79Z" fill="white" stroke="#2E353A" stroke-width="0.887535" stroke-linecap="round" stroke-linejoin="round"/>
<path d="M566.436 1051.08H541.234V1067.38H566.436V1051.08Z" fill="#2E353A"/>
<path d="M566.436 1081.75H541.234V1114.34H566.436V1081.75Z" fill="white" stroke="#2E353A" stroke-width="0.887535" stroke-linecap="round" stroke-linejoin="round"/>
<path d="M566.436 1096.06H541.234V1114.32H566.436V1096.06Z" fill="#2E353A"/>
<path d="M478.221 1034.79H453.02V1067.38H478.221V1034.79Z" fill="white" stroke="#2E353A" stroke-width="0.887535" stroke-linecap="round" stroke-linejoin="round"/>
<path d="M478.221 1051.08H453.02V1067.38H478.221V1051.08Z" fill="#2E353A"/>
<path d="M478.221 1081.75H453.02V1114.34H478.221V1081.75Z" fill="white" stroke="#2E353A" stroke-width="0.887535" stroke-linecap="round" stroke-linejoin="round"/>
<path d="M478.221 1096.06H453.02V1114.32H478.221V1096.06Z" fill="#2E353A"/>
<path d="M478.221 1049.27H453.02V1052.9H478.221V1049.27Z" fill="white" stroke="#2E353A" stroke-width="0.887535" stroke-linecap="round" stroke-linejoin="round"/>
<path d="M566.436 1049.27H541.234V1052.9H566.436V1049.27Z" fill="white" stroke="#2E353A" stroke-width="0.887535" stroke-linecap="round" stroke-linejoin="round"/>
<path d="M396.018 1094.25H370.816V1097.88H396.018V1094.25Z" fill="white" stroke="#2E353A" stroke-width="0.887535" stroke-linecap="round" stroke-linejoin="round"/>
<path d="M478.221 1094.25H453.02V1097.88H478.221V1094.25Z" fill="white" stroke="#2E353A" stroke-width="0.887535" stroke-linecap="round" stroke-linejoin="round"/>
<path d="M566.436 1094.25H541.234V1097.88H566.436V1094.25Z" fill="white" stroke="#2E353A" stroke-width="0.887535" stroke-linecap="round" stroke-linejoin="round"/>
<path d="M372.135 1012.02V1020.01" stroke="#2E353A" stroke-width="0.887535" stroke-linecap="round" stroke-linejoin="round"/>
<path d="M390.148 1012.02V1020.01" stroke="#2E353A" stroke-width="0.887535" stroke-linecap="round" stroke-linejoin="round"/>
<path d="M379.873 1020.01V1028.01" stroke="#2E353A" stroke-width="0.887535" stroke-linecap="round" stroke-linejoin="round"/>
<path d="M400.443 1020.01V1028.01" stroke="#2E353A" stroke-width="0.887535" stroke-linecap="round" stroke-linejoin="round"/>
<path d="M364.154 1020.01H405.297" stroke="#2E353A" stroke-width="0.887535" stroke-linecap="round" stroke-linejoin="round"/>
<path d="M372.135 1118.8V1126.79" stroke="#2E353A" stroke-width="0.887535" stroke-linecap="round" stroke-linejoin="round"/>
<path d="M390.148 1118.8V1126.79" stroke="#2E353A" stroke-width="0.887535" stroke-linecap="round" stroke-linejoin="round"/>
<path d="M379.873 1126.79V1134.79" stroke="#2E353A" stroke-width="0.887535" stroke-linecap="round" stroke-linejoin="round"/>
<path d="M400.443 1126.79V1134.79" stroke="#2E353A" stroke-width="0.887535" stroke-linecap="round" stroke-linejoin="round"/>
<path d="M364.154 1126.79H405.297" stroke="#2E353A" stroke-width="0.887535" stroke-linecap="round" stroke-linejoin="round"/>
<path d="M408.627 1043.07V1051.08" stroke="#2E353A" stroke-width="0.887535" stroke-linecap="round" stroke-linejoin="round"/>
<path d="M426.641 1043.07V1051.08" stroke="#2E353A" stroke-width="0.887535" stroke-linecap="round" stroke-linejoin="round"/>
<path d="M416.365 1051.08V1059.08" stroke="#2E353A" stroke-width="0.887535" stroke-linecap="round" stroke-linejoin="round"/>
<path d="M436.936 1051.08V1059.08" stroke="#2E353A" stroke-width="0.887535" stroke-linecap="round" stroke-linejoin="round"/>
<path d="M400.646 1051.08H441.789" stroke="#2E353A" stroke-width="0.887535" stroke-linecap="round" stroke-linejoin="round"/>
<path d="M408.627 1059.08H441.789" stroke="#2E353A" stroke-width="0.887535" stroke-linecap="round" stroke-linejoin="round"/>
<path d="M408.627 1059.37V1067.36" stroke="#2E353A" stroke-width="0.887535" stroke-linecap="round" stroke-linejoin="round"/>
<path d="M426.641 1059.37V1067.36" stroke="#2E353A" stroke-width="0.887535" stroke-linecap="round" stroke-linejoin="round"/>
<path d="M416.365 1067.36V1075.36" stroke="#2E353A" stroke-width="0.887535" stroke-linecap="round" stroke-linejoin="round"/>
<path d="M436.936 1067.36V1075.36" stroke="#2E353A" stroke-width="0.887535" stroke-linecap="round" stroke-linejoin="round"/>
<path d="M400.646 1067.36H441.789" stroke="#2E353A" stroke-width="0.887535" stroke-linecap="round" stroke-linejoin="round"/>
<path d="M498.346 1096.42V1104.42" stroke="#2E353A" stroke-width="0.887535" stroke-linecap="round" stroke-linejoin="round"/>
<path d="M516.359 1096.42V1104.42" stroke="#2E353A" stroke-width="0.887535" stroke-linecap="round" stroke-linejoin="round"/>
<path d="M506.084 1104.42V1112.41" stroke="#2E353A" stroke-width="0.887535" stroke-linecap="round" stroke-linejoin="round"/>
<path d="M526.654 1104.42V1112.41" stroke="#2E353A" stroke-width="0.887535" stroke-linecap="round" stroke-linejoin="round"/>
<path d="M490.365 1104.42H531.508" stroke="#2E353A" stroke-width="0.887535" stroke-linecap="round" stroke-linejoin="round"/>
<path d="M498.346 1112.41H531.508" stroke="#2E353A" stroke-width="0.887535" stroke-linecap="round" stroke-linejoin="round"/>
<path d="M498.346 1112.72V1120.71" stroke="#2E353A" stroke-width="0.887535" stroke-linecap="round" stroke-linejoin="round"/>
<path d="M516.359 1112.72V1120.71" stroke="#2E353A" stroke-width="0.887535" stroke-linecap="round" stroke-linejoin="round"/>
<path d="M506.084 1120.71V1128.71" stroke="#2E353A" stroke-width="0.887535" stroke-linecap="round" stroke-linejoin="round"/>
<path d="M526.654 1120.71V1128.71" stroke="#2E353A" stroke-width="0.887535" stroke-linecap="round" stroke-linejoin="round"/>
<path d="M490.365 1120.71H531.508" stroke="#2E353A" stroke-width="0.887535" stroke-linecap="round" stroke-linejoin="round"/>
<path d="M15.2746 1245.21C55.1989 1258.4 157.792 1244.13 147.273 1259.5C136.753 1274.87 56.397 1269.1 33.5512 1285.72C10.7054 1302.34 114.639 1301.01 110.963 1306.05C107.287 1311.1 15.8432 1314.55 21.8541 1321.35H638.021C639.016 1316.03 631.928 1309.57 620.353 1305.13C528.604 1302.13 217.699 1291.14 250.272 1280.52C288.449 1268.09 413.096 1255.67 435.881 1245.94C458.666 1236.21 357.738 1235.13 340.842 1230.82C335.4 1229.42 334.75 1228.06 336.517 1226.87L339.421 1227.02V1225.54C344.036 1224.21 348.794 1223.22 353.636 1222.58H339.421V1219.77L337.39 1220.79L333.918 1222.58H332.801C334.224 1219.07 335.19 1215.45 335.684 1211.78C336.476 1205.44 325.328 1219.77 325.328 1219.77C325.328 1219.77 326.912 1214.91 325.328 1211.78C323.744 1208.65 318.951 1216.01 318.951 1216.01C318.951 1216.01 324.536 1198.42 318.951 1186.98C313.367 1175.55 307.071 1216.01 307.071 1216.01C307.071 1216.01 306.218 1200.31 299.05 1200.01C293.242 1199.75 296.836 1210.42 298.42 1214.47C297.191 1212.19 295.379 1210.15 293.1 1208.47C287.962 1204.55 293.1 1217.53 293.1 1217.53C293.1 1217.53 291.069 1213.68 277.646 1211.78C264.223 1209.88 283.129 1220.18 283.129 1220.18C277.31 1218.84 271.406 1217.76 265.441 1216.93C262.476 1216.55 262.233 1217.13 263.207 1218.1L261.278 1219.09L255.064 1222.33C257.1 1217.57 258.462 1212.65 259.126 1207.64C260.141 1199.54 245.946 1217.83 245.946 1217.83C245.946 1217.83 247.977 1211.68 245.946 1207.64C243.915 1203.61 237.823 1213.03 237.823 1213.03C237.823 1213.03 244.931 1190.63 237.823 1176.07C230.716 1161.51 222.694 1213.03 222.694 1213.03C222.694 1213.03 221.598 1193.07 212.54 1192.66C205.169 1192.34 209.697 1205.81 211.728 1211.02C210.165 1208.14 207.869 1205.57 204.986 1203.44C198.427 1198.45 204.986 1214.97 204.986 1214.97C204.986 1214.97 202.407 1210.11 185.308 1207.64C168.209 1205.18 192.274 1218.35 192.274 1218.35C184.865 1216.65 177.347 1215.27 169.753 1214.23C158.381 1212.73 178.404 1222.61 178.404 1222.61H27.459C27.459 1222.61 -24.6091 1232.05 15.2746 1245.21ZM263.877 1218.75C265.915 1220.19 268.095 1221.5 270.396 1222.66H263.877V1218.75Z" fill="#2E353A"/>
<path d="M507.871 1247.18C484.802 1255.71 427.515 1264.66 427.515 1264.66C418.397 1265.65 430.744 1274.97 494.062 1270.35L602.422 1222.63H394.779C401.724 1225.48 451.193 1232.06 479.339 1232.06C507.485 1232.06 530.94 1238.63 507.871 1247.18Z" fill="#2E353A"/>
<path d="M673.762 1222.63H714.701C694.15 1221.99 673.762 1222.63 673.762 1222.63Z" fill="#2E353A"/>
<path d="M741.305 1224.52L644.053 1274.56C656.379 1274.19 669.275 1273.95 681.764 1273.7C735.639 1272.67 716.083 1254 719.738 1247.42C723.394 1240.84 753.977 1241.92 756.413 1230.94C757.104 1227.83 750.748 1225.82 741.305 1224.52Z" fill="#2E353A"/>
<g opacity="0.3">
<path d="M15.2746 1245.21C55.1989 1258.4 157.792 1244.13 147.273 1259.5C136.753 1274.87 56.397 1269.1 33.5512 1285.72C10.7054 1302.34 114.639 1301.01 110.963 1306.05C107.287 1311.1 15.8432 1314.55 21.8541 1321.35H638.021C639.016 1316.03 631.928 1309.57 620.353 1305.13C528.604 1302.13 217.699 1291.14 250.272 1280.52C288.449 1268.09 413.096 1255.67 435.881 1245.94C458.666 1236.21 357.738 1235.13 340.842 1230.82C335.4 1229.42 334.75 1228.06 336.517 1226.87L339.421 1227.02V1225.54C344.036 1224.21 348.794 1223.22 353.636 1222.58H339.421V1219.77L337.39 1220.79L333.918 1222.58H332.801C334.224 1219.07 335.19 1215.45 335.684 1211.78C336.476 1205.44 325.328 1219.77 325.328 1219.77C325.328 1219.77 326.912 1214.91 325.328 1211.78C323.744 1208.65 318.951 1216.01 318.951 1216.01C318.951 1216.01 324.536 1198.42 318.951 1186.98C313.367 1175.55 307.071 1216.01 307.071 1216.01C307.071 1216.01 306.218 1200.31 299.05 1200.01C293.242 1199.75 296.836 1210.42 298.42 1214.47C297.191 1212.19 295.379 1210.15 293.1 1208.47C287.962 1204.55 293.1 1217.53 293.1 1217.53C293.1 1217.53 291.069 1213.68 277.646 1211.78C264.223 1209.88 283.129 1220.18 283.129 1220.18C277.31 1218.84 271.406 1217.76 265.441 1216.93C262.476 1216.55 262.233 1217.13 263.207 1218.1L261.278 1219.09L255.064 1222.33C257.1 1217.57 258.462 1212.65 259.126 1207.64C260.141 1199.54 245.946 1217.83 245.946 1217.83C245.946 1217.83 247.977 1211.68 245.946 1207.64C243.915 1203.61 237.823 1213.03 237.823 1213.03C237.823 1213.03 244.931 1190.63 237.823 1176.07C230.716 1161.51 222.694 1213.03 222.694 1213.03C222.694 1213.03 221.598 1193.07 212.54 1192.66C205.169 1192.34 209.697 1205.81 211.728 1211.02C210.165 1208.14 207.869 1205.57 204.986 1203.44C198.427 1198.45 204.986 1214.97 204.986 1214.97C204.986 1214.97 202.407 1210.11 185.308 1207.64C168.209 1205.18 192.274 1218.35 192.274 1218.35C184.865 1216.65 177.347 1215.27 169.753 1214.23C158.381 1212.73 178.404 1222.61 178.404 1222.61H27.459C27.459 1222.61 -24.6091 1232.05 15.2746 1245.21ZM263.877 1218.75C265.915 1220.19 268.095 1221.5 270.396 1222.66H263.877V1218.75Z" fill="white"/>
<path d="M507.871 1247.18C484.802 1255.71 427.515 1264.66 427.515 1264.66C418.397 1265.65 430.744 1274.97 494.062 1270.35L602.422 1222.63H394.779C401.724 1225.48 451.193 1232.06 479.339 1232.06C507.485 1232.06 530.94 1238.63 507.871 1247.18Z" fill="white"/>
<path d="M673.762 1222.63H714.701C694.15 1221.99 673.762 1222.63 673.762 1222.63Z" fill="white"/>
<path d="M741.305 1224.52L644.053 1274.56C656.379 1274.19 669.275 1273.95 681.764 1273.7C735.639 1272.67 716.083 1254 719.738 1247.42C723.394 1240.84 753.977 1241.92 756.413 1230.94C757.104 1227.83 750.748 1225.82 741.305 1224.52Z" fill="white"/>
</g>
<path d="M191.818 950.896V1081.69H430.085V950.896H191.818ZM213.953 966.966C212.652 966.966 211.38 966.658 210.298 966.081C209.216 965.503 208.373 964.683 207.875 963.723C207.377 962.763 207.246 961.706 207.5 960.687C207.754 959.668 208.381 958.732 209.301 957.997C210.221 957.262 211.393 956.762 212.67 956.559C213.946 956.357 215.269 956.461 216.471 956.858C217.674 957.256 218.701 957.929 219.424 958.793C220.147 959.657 220.533 960.673 220.533 961.712C220.533 963.106 219.84 964.442 218.606 965.427C217.372 966.412 215.698 966.966 213.953 966.966ZM407.726 966.966C406.425 966.966 405.153 966.658 404.071 966.081C402.989 965.503 402.146 964.683 401.648 963.723C401.15 962.763 401.019 961.706 401.273 960.687C401.527 959.668 402.154 958.732 403.074 957.997C403.994 957.262 405.166 956.762 406.443 956.559C407.719 956.357 409.042 956.461 410.244 956.858C411.447 957.256 412.474 957.929 413.197 958.793C413.92 959.657 414.306 960.673 414.306 961.712C414.301 963.104 413.606 964.438 412.373 965.422C411.14 966.407 409.47 966.962 407.726 966.966Z" fill="#80BBFF" stroke="#2E353A" stroke-miterlimit="10"/>
<path d="M414.307 961.713C414.307 962.752 413.921 963.768 413.198 964.632C412.475 965.496 411.448 966.169 410.246 966.567C409.043 966.964 407.72 967.068 406.444 966.866C405.168 966.663 403.995 966.163 403.075 965.428C402.155 964.693 401.528 963.757 401.275 962.738C401.021 961.719 401.151 960.662 401.649 959.702C402.147 958.742 402.99 957.922 404.072 957.344C405.154 956.767 406.426 956.459 407.728 956.459H213.955C215.256 956.459 216.528 956.767 217.61 957.344C218.692 957.922 219.535 958.742 220.033 959.702C220.531 960.662 220.662 961.719 220.408 962.738C220.154 963.757 219.527 964.693 218.607 965.428C217.687 966.163 216.515 966.663 215.238 966.866C213.962 967.068 212.639 966.964 211.437 966.567C210.235 966.169 209.207 965.496 208.484 964.632C207.761 963.768 207.375 962.752 207.375 961.713C207.375 960.319 208.068 958.983 209.302 957.998C210.536 957.013 212.21 956.459 213.955 956.459H198.684V1074.48H420.968V956.459H407.728C409.473 956.459 411.146 957.013 412.38 957.998C413.614 958.983 414.307 960.319 414.307 961.713Z" fill="#2E353A"/>
<path d="M213.955 900.305C212.064 900.308 210.217 900.759 208.646 901.6C207.076 902.441 205.853 903.635 205.132 905.031C204.412 906.427 204.225 907.962 204.596 909.442C204.968 910.923 205.88 912.282 207.219 913.348C208.557 914.415 210.262 915.141 212.116 915.434C213.971 915.727 215.893 915.575 217.64 914.997C219.386 914.418 220.879 913.439 221.929 912.184C222.979 910.928 223.54 909.452 223.54 907.942C223.54 906.938 223.292 905.943 222.81 905.016C222.328 904.088 221.621 903.245 220.731 902.536C219.841 901.827 218.784 901.264 217.621 900.881C216.458 900.499 215.212 900.303 213.955 900.305ZM213.955 913.034C212.694 913.031 211.464 912.729 210.418 912.168C209.372 911.606 208.558 910.81 208.078 909.879C207.598 908.949 207.475 907.926 207.723 906.939C207.972 905.952 208.581 905.047 209.473 904.336C210.366 903.626 211.502 903.142 212.738 902.947C213.975 902.752 215.256 902.854 216.42 903.24C217.584 903.626 218.578 904.278 219.278 905.115C219.978 905.952 220.351 906.936 220.351 907.942C220.357 908.616 220.195 909.283 219.876 909.907C219.557 910.53 219.087 911.097 218.492 911.575C217.898 912.053 217.191 912.432 216.412 912.691C215.633 912.949 214.798 913.083 213.955 913.083V913.034Z" fill="white" stroke="#2E353A" stroke-width="0.916642" stroke-linecap="round" stroke-linejoin="round"/>
<path d="M213.954 918.643C212.058 918.643 210.204 919.092 208.627 919.934C207.05 920.775 205.822 921.972 205.097 923.371C204.372 924.771 204.183 926.31 204.555 927.795C204.926 929.281 205.841 930.644 207.184 931.714C208.526 932.784 210.236 933.511 212.097 933.805C213.957 934.098 215.885 933.945 217.636 933.363C219.387 932.781 220.883 931.797 221.934 930.537C222.985 929.276 223.543 927.795 223.539 926.28C223.539 925.276 223.291 924.281 222.809 923.354C222.327 922.426 221.621 921.583 220.731 920.874C219.84 920.164 218.784 919.602 217.621 919.219C216.458 918.836 215.212 918.64 213.954 918.643ZM213.954 931.388C212.689 931.388 211.452 931.088 210.4 930.527C209.348 929.966 208.528 929.168 208.044 928.235C207.56 927.301 207.433 926.274 207.68 925.284C207.927 924.293 208.536 923.383 209.431 922.668C210.326 921.954 211.465 921.467 212.706 921.27C213.947 921.073 215.233 921.174 216.402 921.561C217.571 921.948 218.57 922.602 219.273 923.442C219.976 924.282 220.351 925.27 220.351 926.28C220.351 927.635 219.677 928.934 218.477 929.892C217.278 930.85 215.651 931.388 213.954 931.388Z" fill="white" stroke="#2E353A" stroke-width="0.916642" stroke-linecap="round" stroke-linejoin="round"/>
<path d="M213.955 934.811C212.064 934.814 210.217 935.264 208.646 936.106C207.076 936.947 205.853 938.141 205.132 939.537C204.412 940.932 204.225 942.468 204.596 943.948C204.968 945.428 205.88 946.788 207.219 947.854C208.557 948.921 210.262 949.647 212.116 949.94C213.971 950.233 215.893 950.081 217.64 949.503C219.386 948.924 220.879 947.945 221.929 946.69C222.979 945.434 223.54 943.958 223.54 942.448C223.54 941.444 223.292 940.449 222.81 939.522C222.328 938.594 221.621 937.751 220.731 937.042C219.841 936.332 218.784 935.77 217.621 935.387C216.458 935.004 215.212 934.808 213.955 934.811ZM213.955 947.54C212.694 947.537 211.464 947.235 210.418 946.674C209.372 946.112 208.558 945.316 208.078 944.385C207.598 943.455 207.475 942.431 207.723 941.445C207.972 940.458 208.581 939.552 209.473 938.842C210.366 938.132 211.502 937.648 212.738 937.453C213.975 937.258 215.256 937.36 216.42 937.746C217.584 938.131 218.578 938.784 219.278 939.621C219.978 940.458 220.351 941.442 220.351 942.448C220.346 943.8 219.67 945.095 218.471 946.049C217.272 947.004 215.648 947.54 213.955 947.54Z" fill="white" stroke="#2E353A" stroke-width="0.916642" stroke-linecap="round" stroke-linejoin="round"/>
<path d="M213.953 925.455C213.506 925.455 213.077 925.313 212.761 925.061C212.445 924.809 212.268 924.466 212.268 924.109V911.51C212.268 911.153 212.445 910.811 212.761 910.558C213.077 910.306 213.506 910.164 213.953 910.164C214.402 910.164 214.833 910.305 215.152 910.557C215.471 910.809 215.654 911.152 215.659 911.51V924.109C215.654 924.468 215.471 924.81 215.152 925.062C214.833 925.314 214.402 925.455 213.953 925.455Z" fill="white" stroke="#2E353A" stroke-width="0.916642" stroke-linecap="round" stroke-linejoin="round"/>
<path d="M213.953 942.789C213.506 942.789 213.077 942.647 212.761 942.395C212.445 942.143 212.268 941.8 212.268 941.443V928.844C212.268 928.487 212.445 928.145 212.761 927.892C213.077 927.64 213.506 927.498 213.953 927.498C214.402 927.498 214.833 927.639 215.152 927.891C215.471 928.143 215.654 928.486 215.659 928.844V941.443C215.654 941.802 215.471 942.144 215.152 942.396C214.833 942.648 214.402 942.789 213.953 942.789Z" fill="white" stroke="#2E353A" stroke-width="0.916642" stroke-linecap="round" stroke-linejoin="round"/>
<path d="M213.953 960.154C213.506 960.154 213.077 960.013 212.761 959.76C212.445 959.508 212.268 959.166 212.268 958.809V946.209C212.268 946.032 212.311 945.857 212.396 945.694C212.481 945.531 212.605 945.382 212.761 945.257C212.918 945.133 213.104 945.033 213.308 944.966C213.513 944.898 213.732 944.863 213.953 944.863C214.402 944.863 214.833 945.005 215.152 945.256C215.471 945.508 215.654 945.851 215.659 946.209V958.809C215.654 959.167 215.471 959.509 215.152 959.761C214.833 960.013 214.402 960.155 213.953 960.154Z" fill="white" stroke="#2E353A" stroke-width="0.916642" stroke-linecap="round" stroke-linejoin="round"/>
<path d="M407.726 900.305C405.835 900.308 403.988 900.759 402.418 901.6C400.847 902.441 399.625 903.635 398.904 905.031C398.183 906.427 397.997 907.962 398.368 909.442C398.739 910.923 399.652 912.282 400.99 913.348C402.329 914.415 404.033 915.141 405.888 915.434C407.743 915.727 409.665 915.575 411.411 914.997C413.158 914.418 414.651 913.439 415.701 912.184C416.751 910.928 417.311 909.452 417.311 907.942C417.311 906.938 417.063 905.943 416.581 905.016C416.099 904.088 415.393 903.245 414.503 902.536C413.612 901.827 412.555 901.264 411.393 900.881C410.23 900.499 408.984 900.303 407.726 900.305ZM407.726 913.034C406.466 913.031 405.235 912.729 404.189 912.168C403.143 911.606 402.329 910.81 401.849 909.879C401.37 908.949 401.247 907.926 401.495 906.939C401.743 905.952 402.352 905.047 403.245 904.336C404.137 903.626 405.273 903.142 406.51 902.947C407.746 902.752 409.027 902.854 410.191 903.24C411.355 903.626 412.35 904.278 413.05 905.115C413.749 905.952 414.123 906.936 414.123 907.942C414.128 908.616 413.967 909.283 413.648 909.907C413.329 910.53 412.858 911.097 412.264 911.575C411.669 912.053 410.962 912.432 410.183 912.691C409.405 912.949 408.57 913.083 407.726 913.083V913.034Z" fill="white" stroke="#2E353A" stroke-width="0.916642" stroke-linecap="round" stroke-linejoin="round"/>
<path d="M407.728 918.643C405.831 918.643 403.977 919.092 402.4 919.934C400.824 920.775 399.595 921.972 398.87 923.371C398.145 924.771 397.957 926.31 398.328 927.795C398.7 929.281 399.615 930.644 400.957 931.714C402.3 932.784 404.01 933.511 405.87 933.805C407.731 934.098 409.659 933.945 411.41 933.363C413.161 932.781 414.656 931.797 415.707 930.537C416.758 929.276 417.317 927.795 417.313 926.28C417.313 925.276 417.065 924.281 416.583 923.354C416.101 922.426 415.394 921.583 414.504 920.874C413.614 920.164 412.557 919.602 411.394 919.219C410.231 918.836 408.985 918.64 407.728 918.643ZM407.728 931.388C406.462 931.388 405.226 931.088 404.174 930.527C403.122 929.966 402.302 929.168 401.818 928.235C401.334 927.301 401.207 926.274 401.454 925.284C401.701 924.293 402.31 923.383 403.204 922.668C404.099 921.954 405.239 921.467 406.48 921.27C407.721 921.073 409.007 921.174 410.176 921.561C411.344 921.948 412.344 922.602 413.046 923.442C413.749 924.282 414.124 925.27 414.124 926.28C414.124 926.951 413.959 927.615 413.638 928.235C413.316 928.854 412.845 929.418 412.251 929.892C411.657 930.366 410.952 930.742 410.176 930.999C409.4 931.256 408.568 931.388 407.728 931.388Z" fill="white" stroke="#2E353A" stroke-width="0.916642" stroke-linecap="round" stroke-linejoin="round"/>
<path d="M407.726 934.811C405.835 934.814 403.988 935.264 402.418 936.106C400.847 936.947 399.625 938.141 398.904 939.537C398.183 940.932 397.997 942.468 398.368 943.948C398.739 945.428 399.652 946.788 400.99 947.854C402.329 948.921 404.033 949.647 405.888 949.94C407.743 950.233 409.665 950.081 411.411 949.503C413.158 948.924 414.651 947.945 415.701 946.69C416.751 945.434 417.311 943.958 417.311 942.448C417.311 941.444 417.063 940.449 416.581 939.522C416.099 938.594 415.393 937.751 414.503 937.042C413.612 936.332 412.555 935.77 411.393 935.387C410.23 935.004 408.984 934.808 407.726 934.811ZM407.726 947.54C406.466 947.537 405.235 947.235 404.189 946.674C403.143 946.112 402.329 945.316 401.849 944.385C401.37 943.455 401.247 942.431 401.495 941.445C401.743 940.458 402.352 939.552 403.245 938.842C404.137 938.132 405.273 937.648 406.51 937.453C407.746 937.258 409.027 937.36 410.191 937.746C411.355 938.131 412.35 938.784 413.05 939.621C413.749 940.458 414.123 941.442 414.123 942.448C414.118 943.8 413.441 945.095 412.242 946.049C411.043 947.004 409.419 947.54 407.726 947.54Z" fill="white" stroke="#2E353A" stroke-width="0.916642" stroke-linecap="round" stroke-linejoin="round"/>
<path d="M407.727 925.455C407.28 925.455 406.851 925.313 406.535 925.061C406.219 924.809 406.041 924.466 406.041 924.109V911.51C406.041 911.153 406.219 910.811 406.535 910.558C406.851 910.306 407.28 910.164 407.727 910.164C408.175 910.164 408.606 910.305 408.926 910.557C409.245 910.809 409.427 911.152 409.432 911.51V924.109C409.427 924.468 409.245 924.81 408.926 925.062C408.606 925.314 408.175 925.455 407.727 925.455Z" fill="white" stroke="#2E353A" stroke-width="0.916642" stroke-linecap="round" stroke-linejoin="round"/>
<path d="M407.727 942.789C407.28 942.789 406.851 942.647 406.535 942.395C406.219 942.143 406.041 941.8 406.041 941.443V928.844C406.041 928.487 406.219 928.145 406.535 927.892C406.851 927.64 407.28 927.498 407.727 927.498C408.175 927.498 408.606 927.639 408.926 927.891C409.245 928.143 409.427 928.486 409.432 928.844V941.443C409.427 941.802 409.245 942.144 408.926 942.396C408.606 942.648 408.175 942.789 407.727 942.789Z" fill="white" stroke="#2E353A" stroke-width="0.916642" stroke-linecap="round" stroke-linejoin="round"/>
<path d="M407.727 960.154C407.28 960.154 406.851 960.013 406.535 959.76C406.219 959.508 406.041 959.166 406.041 958.809V946.209C406.041 946.032 406.085 945.857 406.169 945.694C406.254 945.531 406.378 945.382 406.535 945.257C406.691 945.133 406.877 945.033 407.082 944.966C407.286 944.898 407.505 944.863 407.727 944.863C408.175 944.863 408.606 945.005 408.926 945.256C409.245 945.508 409.427 945.851 409.432 946.209V958.809C409.427 959.167 409.245 959.509 408.926 959.761C408.606 960.013 408.175 960.155 407.727 960.154Z" fill="white" stroke="#2E353A" stroke-width="0.916642" stroke-linecap="round" stroke-linejoin="round"/>
<path d="M457.196 904.342H85.0838L73.3867 878.527H482.885L457.196 904.342Z" fill="#2E353A" stroke="#2E353A" stroke-width="0.887535" stroke-linecap="round" stroke-linejoin="round"/>
<path d="M447.712 904.342H75.5994L63.9023 878.527H473.421L447.712 904.342Z" fill="white" stroke="#2E353A" stroke-width="0.887535" stroke-linecap="round" stroke-linejoin="round"/>
<path d="M144.665 1314.4H114.225L123.424 807H128.826L144.665 824.951V1314.4Z" fill="#2E353A" stroke="#2E353A" stroke-width="0.887535" stroke-linecap="round" stroke-linejoin="round"/>
<path d="M139.243 1314.4H108.803V824.951L123.424 807L139.243 824.951V1314.4Z" fill="white" stroke="#2E353A" stroke-width="0.887535" stroke-linecap="round" stroke-linejoin="round"/>
<path d="M114.225 1314.4V1283.18" stroke="#2E353A" stroke-width="0.887535" stroke-linecap="round" stroke-linejoin="round"/>
<path d="M119.545 1314.4V1200.39" stroke="#2E353A" stroke-width="0.887535" stroke-linecap="round" stroke-linejoin="round"/>
<path d="M114.225 1278.45V1267.1" stroke="#2E353A" stroke-width="0.887535" stroke-linecap="round" stroke-linejoin="round"/>
<path d="M129.436 1113.44V1102.09" stroke="#2E353A" stroke-width="0.887535" stroke-linecap="round" stroke-linejoin="round"/>
<path d="M114.225 829.8V818.449" stroke="#2E353A" stroke-width="0.887535" stroke-linecap="round" stroke-linejoin="round"/>
<path d="M114.225 844.749V833.398" stroke="#2E353A" stroke-width="0.887535" stroke-linecap="round" stroke-linejoin="round"/>
<path d="M129.436 1185.4V1126.19" stroke="#2E353A" stroke-width="0.887535" stroke-linecap="round" stroke-linejoin="round"/>
<path d="M66.8887 883.91H77.55" stroke="#2E353A" stroke-width="0.887535" stroke-linecap="round" stroke-linejoin="round"/>
<path d="M71.6191 888.176H97.1049" stroke="#2E353A" stroke-width="0.887535" stroke-linecap="round" stroke-linejoin="round"/>
<path d="M166.354 888.176H191.819" stroke="#2E353A" stroke-width="0.887535" stroke-linecap="round" stroke-linejoin="round"/>
<path d="M179.086 892.91H188.041" stroke="#2E353A" stroke-width="0.887535" stroke-linecap="round" stroke-linejoin="round"/>
<path d="M224.311 892.91H277.475" stroke="#2E353A" stroke-width="0.887535" stroke-linecap="round" stroke-linejoin="round"/>
<path d="M459.674 892.91H450.779" stroke="#2E353A" stroke-width="0.887535" stroke-linecap="round" stroke-linejoin="round"/>
<path d="M455.51 896.219H425.312" stroke="#2E353A" stroke-width="0.887535" stroke-linecap="round" stroke-linejoin="round"/>
<path d="M47.0068 1321.91H66.9284C66.9284 1321.91 30.7609 1296.16 47.0068 1298.78C63.2527 1301.41 77.4679 1310.56 77.4679 1310.56C77.4679 1310.56 58.2571 1296.12 71.5381 1298.75C84.8192 1301.38 84.2709 1305.72 84.2709 1305.72C84.2709 1305.72 85.3065 1274.54 97.0239 1283.15C103.826 1287.9 108.026 1294.59 108.721 1301.78C108.721 1301.78 133.76 1277.05 139.182 1278.42C144.604 1279.78 144.604 1294.91 144.604 1294.91C144.604 1294.91 186.661 1267.54 179.025 1283.15C171.389 1298.77 166.292 1304.64 166.292 1304.64C166.292 1304.64 186.031 1290.71 183.513 1298.75C182.438 1302.63 180.936 1306.43 179.025 1310.1C179.025 1310.1 208.714 1317.53 204.328 1317.51C199.942 1317.5 191.758 1322 191.758 1322C191.758 1322 241.897 1315.52 232.373 1322C222.848 1328.49 144.563 1327.4 144.563 1327.4C144.563 1327.4 182.802 1334.88 166.353 1334.88C149.904 1334.88 124.033 1329.46 124.033 1329.46C124.033 1329.46 85.4487 1335.95 71.6194 1334.88C57.7901 1333.81 97.1051 1329.46 97.1051 1329.46C97.1051 1329.46 22.2928 1329.53 47.0068 1321.91Z" fill="#2E353A" stroke="#2E353A" stroke-width="0.916642" stroke-linecap="round" stroke-linejoin="round"/>
<g filter="url(#filter1_d_135_207)">
<path d="M277.461 979.785L270.261 1003H265.925L261.173 987.817C261.098 987.603 261.023 987.369 260.949 987.113C260.874 986.857 260.805 986.585 260.741 986.297C260.677 986.585 260.607 986.857 260.533 987.113C260.458 987.369 260.383 987.603 260.309 987.817L255.509 1003H251.157L243.973 979.785H248.005C248.421 979.785 248.767 979.881 249.045 980.073C249.333 980.265 249.519 980.521 249.605 980.841L253.205 993.929C253.29 994.291 253.375 994.686 253.461 995.113C253.557 995.529 253.647 995.971 253.733 996.441C253.829 995.961 253.93 995.513 254.037 995.097C254.143 994.681 254.261 994.291 254.389 993.929L258.581 980.841C258.666 980.574 258.847 980.334 259.125 980.121C259.413 979.897 259.759 979.785 260.165 979.785H261.573C261.989 979.785 262.325 979.886 262.581 980.089C262.847 980.281 263.045 980.531 263.173 980.841L267.349 993.929C267.477 994.27 267.594 994.643 267.701 995.049C267.807 995.443 267.909 995.865 268.005 996.313C268.09 995.865 268.17 995.443 268.245 995.049C268.33 994.643 268.415 994.27 268.501 993.929L272.101 980.841C272.175 980.563 272.357 980.318 272.645 980.105C272.933 979.891 273.279 979.785 273.685 979.785H277.461Z" fill="white"/>
<path d="M287.897 992.809C287.897 992.35 287.833 991.913 287.705 991.497C287.588 991.081 287.396 990.713 287.129 990.393C286.862 990.073 286.526 989.822 286.121 989.641C285.716 989.449 285.23 989.353 284.665 989.353C283.609 989.353 282.782 989.651 282.185 990.249C281.588 990.846 281.198 991.699 281.017 992.809H287.897ZM280.953 995.433C281.092 996.979 281.529 998.11 282.265 998.825C283.012 999.539 283.982 999.897 285.177 999.897C285.785 999.897 286.308 999.827 286.745 999.689C287.193 999.539 287.582 999.379 287.913 999.209C288.254 999.027 288.558 998.867 288.825 998.729C289.102 998.579 289.374 998.505 289.641 998.505C289.982 998.505 290.249 998.633 290.441 998.889L291.721 1000.49C291.252 1001.03 290.734 1001.49 290.169 1001.85C289.604 1002.2 289.017 1002.48 288.409 1002.7C287.801 1002.9 287.188 1003.04 286.569 1003.11C285.95 1003.2 285.353 1003.24 284.777 1003.24C283.625 1003.24 282.548 1003.05 281.545 1002.68C280.553 1002.3 279.684 1001.74 278.937 1001C278.201 1000.25 277.62 999.331 277.193 998.233C276.766 997.134 276.553 995.859 276.553 994.409C276.553 993.289 276.734 992.233 277.097 991.241C277.47 990.249 278.004 989.385 278.697 988.649C279.39 987.913 280.233 987.331 281.225 986.905C282.217 986.467 283.337 986.249 284.585 986.249C285.641 986.249 286.612 986.419 287.497 986.761C288.393 987.091 289.161 987.577 289.801 988.217C290.452 988.857 290.953 989.646 291.305 990.585C291.668 991.513 291.849 992.574 291.849 993.769C291.849 994.099 291.833 994.371 291.801 994.585C291.769 994.798 291.716 994.969 291.641 995.097C291.566 995.225 291.465 995.315 291.337 995.369C291.209 995.411 291.044 995.433 290.841 995.433H280.953Z" fill="white"/>
<path d="M322.679 979.785V1003H320.199C319.826 1003 319.511 1002.94 319.255 1002.82C318.999 1002.7 318.748 1002.48 318.503 1002.18L306.935 987.465C306.967 987.838 306.988 988.206 306.999 988.569C307.02 988.931 307.031 989.267 307.031 989.577V1003H302.791V979.785H305.319C305.522 979.785 305.692 979.795 305.831 979.817C305.98 979.827 306.114 979.865 306.231 979.929C306.348 979.982 306.46 980.057 306.567 980.153C306.674 980.249 306.791 980.377 306.919 980.537L318.567 995.321C318.524 994.915 318.492 994.526 318.471 994.153C318.45 993.769 318.439 993.406 318.439 993.065V979.785H322.679Z" fill="white"/>
<path d="M336.897 992.809C336.897 992.35 336.833 991.913 336.705 991.497C336.588 991.081 336.396 990.713 336.129 990.393C335.862 990.073 335.526 989.822 335.121 989.641C334.716 989.449 334.23 989.353 333.665 989.353C332.609 989.353 331.782 989.651 331.185 990.249C330.588 990.846 330.198 991.699 330.017 992.809H336.897ZM329.953 995.433C330.092 996.979 330.529 998.11 331.265 998.825C332.012 999.539 332.982 999.897 334.177 999.897C334.785 999.897 335.308 999.827 335.745 999.689C336.193 999.539 336.582 999.379 336.913 999.209C337.254 999.027 337.558 998.867 337.825 998.729C338.102 998.579 338.374 998.505 338.641 998.505C338.982 998.505 339.249 998.633 339.441 998.889L340.721 1000.49C340.252 1001.03 339.734 1001.49 339.169 1001.85C338.604 1002.2 338.017 1002.48 337.409 1002.7C336.801 1002.9 336.188 1003.04 335.569 1003.11C334.95 1003.2 334.353 1003.24 333.777 1003.24C332.625 1003.24 331.548 1003.05 330.545 1002.68C329.553 1002.3 328.684 1001.74 327.937 1001C327.201 1000.25 326.62 999.331 326.193 998.233C325.766 997.134 325.553 995.859 325.553 994.409C325.553 993.289 325.734 992.233 326.097 991.241C326.47 990.249 327.004 989.385 327.697 988.649C328.39 987.913 329.233 987.331 330.225 986.905C331.217 986.467 332.337 986.249 333.585 986.249C334.641 986.249 335.612 986.419 336.497 986.761C337.393 987.091 338.161 987.577 338.801 988.217C339.452 988.857 339.953 989.646 340.305 990.585C340.668 991.513 340.849 992.574 340.849 993.769C340.849 994.099 340.833 994.371 340.801 994.585C340.769 994.798 340.716 994.969 340.641 995.097C340.566 995.225 340.465 995.315 340.337 995.369C340.209 995.411 340.044 995.433 339.841 995.433H329.953Z" fill="white"/>
<path d="M354.053 992.809C354.053 992.35 353.989 991.913 353.861 991.497C353.744 991.081 353.552 990.713 353.285 990.393C353.019 990.073 352.683 989.822 352.277 989.641C351.872 989.449 351.387 989.353 350.821 989.353C349.765 989.353 348.939 989.651 348.341 990.249C347.744 990.846 347.355 991.699 347.173 992.809H354.053ZM347.109 995.433C347.248 996.979 347.685 998.11 348.421 998.825C349.168 999.539 350.139 999.897 351.333 999.897C351.941 999.897 352.464 999.827 352.901 999.689C353.349 999.539 353.739 999.379 354.069 999.209C354.411 999.027 354.715 998.867 354.981 998.729C355.259 998.579 355.531 998.505 355.797 998.505C356.139 998.505 356.405 998.633 356.597 998.889L357.877 1000.49C357.408 1001.03 356.891 1001.49 356.325 1001.85C355.76 1002.2 355.173 1002.48 354.565 1002.7C353.957 1002.9 353.344 1003.04 352.725 1003.11C352.107 1003.2 351.509 1003.24 350.933 1003.24C349.781 1003.24 348.704 1003.05 347.701 1002.68C346.709 1002.3 345.84 1001.74 345.093 1001C344.357 1000.25 343.776 999.331 343.349 998.233C342.923 997.134 342.709 995.859 342.709 994.409C342.709 993.289 342.891 992.233 343.253 991.241C343.627 990.249 344.16 989.385 344.853 988.649C345.547 987.913 346.389 987.331 347.381 986.905C348.373 986.467 349.493 986.249 350.741 986.249C351.797 986.249 352.768 986.419 353.653 986.761C354.549 987.091 355.317 987.577 355.957 988.217C356.608 988.857 357.109 989.646 357.461 990.585C357.824 991.513 358.005 992.574 358.005 993.769C358.005 994.099 357.989 994.371 357.957 994.585C357.925 994.798 357.872 994.969 357.797 995.097C357.723 995.225 357.621 995.315 357.493 995.369C357.365 995.411 357.2 995.433 356.997 995.433H347.109Z" fill="white"/>
<path d="M370.938 990.793C370.522 990.313 370.068 989.977 369.578 989.785C369.098 989.593 368.586 989.497 368.042 989.497C367.508 989.497 367.023 989.598 366.586 989.801C366.148 990.003 365.77 990.323 365.45 990.761C365.14 991.187 364.9 991.737 364.73 992.409C364.559 993.081 364.474 993.881 364.474 994.809C364.474 995.726 364.543 996.505 364.682 997.145C364.82 997.785 365.018 998.302 365.274 998.697C365.54 999.091 365.86 999.379 366.234 999.561C366.607 999.731 367.023 999.817 367.482 999.817C368.26 999.817 368.911 999.662 369.434 999.353C369.967 999.043 370.468 998.606 370.938 998.041V990.793ZM375.354 979.145V1003H372.634C372.068 1003 371.706 1002.74 371.546 1002.23L371.178 1000.79C370.847 1001.16 370.495 1001.49 370.122 1001.78C369.759 1002.08 369.364 1002.34 368.938 1002.57C368.511 1002.78 368.052 1002.95 367.562 1003.06C367.071 1003.18 366.538 1003.24 365.962 1003.24C365.076 1003.24 364.266 1003.05 363.53 1002.68C362.794 1002.31 362.154 1001.76 361.61 1001.05C361.076 1000.32 360.66 999.438 360.362 998.393C360.063 997.347 359.914 996.153 359.914 994.809C359.914 993.582 360.079 992.441 360.41 991.385C360.751 990.329 361.231 989.417 361.85 988.649C362.468 987.881 363.215 987.278 364.09 986.841C364.964 986.403 365.935 986.185 367.002 986.185C367.898 986.185 368.65 986.318 369.258 986.585C369.876 986.851 370.436 987.214 370.938 987.673V979.145H375.354Z" fill="white"/>
<path d="M236.532 1025.78V1049H232.292V1034.74C232.292 1034.45 232.297 1034.13 232.308 1033.78C232.329 1033.44 232.361 1033.1 232.404 1032.74L225.764 1045.34C225.401 1046.03 224.841 1046.38 224.084 1046.38H223.412C223.038 1046.38 222.708 1046.29 222.42 1046.12C222.132 1045.94 221.902 1045.68 221.732 1045.34L215.06 1032.7C215.092 1033.07 215.118 1033.43 215.14 1033.78C215.161 1034.13 215.172 1034.45 215.172 1034.74V1049H210.932V1025.78H214.58C214.782 1025.78 214.964 1025.79 215.124 1025.8C215.284 1025.81 215.422 1025.84 215.54 1025.9C215.668 1025.94 215.78 1026.01 215.876 1026.12C215.982 1026.22 216.084 1026.36 216.18 1026.54L222.676 1038.92C222.878 1039.29 223.065 1039.68 223.236 1040.07C223.417 1040.47 223.588 1040.87 223.748 1041.29C223.908 1040.86 224.073 1040.45 224.244 1040.04C224.425 1039.64 224.617 1039.25 224.82 1038.87L231.268 1026.54C231.364 1026.36 231.465 1026.22 231.572 1026.12C231.678 1026.01 231.79 1025.94 231.908 1025.9C232.036 1025.84 232.174 1025.81 232.324 1025.8C232.484 1025.79 232.67 1025.78 232.884 1025.78H236.532Z" fill="white"/>
<path d="M249.01 1042.1C247.933 1042.16 247.037 1042.25 246.322 1042.39C245.607 1042.52 245.037 1042.69 244.61 1042.9C244.194 1043.12 243.895 1043.36 243.714 1043.64C243.543 1043.91 243.458 1044.2 243.458 1044.52C243.458 1045.16 243.634 1045.61 243.986 1045.88C244.349 1046.15 244.85 1046.28 245.49 1046.28C246.226 1046.28 246.861 1046.15 247.394 1045.9C247.938 1045.63 248.477 1045.22 249.01 1044.66V1042.1ZM240.018 1034.79C240.989 1033.92 242.061 1033.27 243.234 1032.84C244.407 1032.4 245.677 1032.18 247.042 1032.18C248.023 1032.18 248.898 1032.34 249.666 1032.66C250.445 1032.98 251.101 1033.43 251.634 1034.01C252.178 1034.57 252.594 1035.25 252.882 1036.04C253.17 1036.83 253.314 1037.69 253.314 1038.63V1049H251.298C250.882 1049 250.562 1048.94 250.338 1048.82C250.125 1048.71 249.949 1048.46 249.81 1048.09L249.458 1047.03C249.042 1047.4 248.637 1047.72 248.242 1047.99C247.858 1048.27 247.458 1048.5 247.042 1048.7C246.626 1048.88 246.178 1049.02 245.698 1049.11C245.229 1049.21 244.701 1049.26 244.114 1049.26C243.389 1049.26 242.727 1049.16 242.13 1048.97C241.533 1048.78 241.015 1048.49 240.578 1048.12C240.151 1047.74 239.821 1047.26 239.586 1046.7C239.351 1046.13 239.234 1045.48 239.234 1044.74C239.234 1044.14 239.389 1043.53 239.698 1042.92C240.007 1042.31 240.535 1041.76 241.282 1041.27C242.039 1040.77 243.042 1040.36 244.29 1040.04C245.549 1039.71 247.122 1039.52 249.01 1039.48V1038.63C249.01 1037.6 248.791 1036.84 248.354 1036.36C247.917 1035.87 247.287 1035.62 246.466 1035.62C245.858 1035.62 245.351 1035.7 244.946 1035.85C244.541 1035.99 244.183 1036.14 243.874 1036.31C243.575 1036.47 243.293 1036.63 243.026 1036.78C242.759 1036.92 242.45 1036.98 242.098 1036.98C241.789 1036.98 241.527 1036.91 241.314 1036.76C241.111 1036.6 240.941 1036.41 240.802 1036.2L240.018 1034.79Z" fill="white"/>
<path d="M260.905 1035.22C261.428 1034.29 262.03 1033.54 262.713 1033C263.396 1032.46 264.196 1032.18 265.113 1032.18C265.86 1032.18 266.468 1032.36 266.937 1032.71L266.649 1035.98C266.596 1036.19 266.51 1036.34 266.393 1036.42C266.286 1036.5 266.137 1036.54 265.945 1036.54C265.774 1036.54 265.529 1036.52 265.209 1036.47C264.889 1036.42 264.59 1036.39 264.313 1036.39C263.908 1036.39 263.545 1036.45 263.225 1036.57C262.916 1036.69 262.638 1036.85 262.393 1037.06C262.148 1037.28 261.924 1037.54 261.721 1037.85C261.529 1038.16 261.348 1038.51 261.177 1038.9V1049H256.761V1032.5H259.369C259.817 1032.5 260.126 1032.58 260.297 1032.74C260.468 1032.9 260.59 1033.18 260.665 1033.58L260.905 1035.22Z" fill="white"/>
<path d="M273.24 1025.14V1038.68H273.976C274.253 1038.68 274.472 1038.64 274.632 1038.57C274.792 1038.48 274.952 1038.33 275.112 1038.12L278.76 1033.26C278.941 1033.01 279.144 1032.82 279.368 1032.7C279.602 1032.57 279.896 1032.5 280.248 1032.5H284.28L279.544 1038.52C279.17 1039.02 278.738 1039.42 278.248 1039.7C278.493 1039.88 278.706 1040.07 278.888 1040.3C279.069 1040.52 279.245 1040.77 279.416 1041.05L284.52 1049H280.552C280.21 1049 279.917 1048.95 279.672 1048.84C279.426 1048.72 279.224 1048.52 279.064 1048.23L275.352 1042.17C275.202 1041.91 275.048 1041.75 274.888 1041.67C274.728 1041.6 274.488 1041.56 274.168 1041.56H273.24V1049H268.824V1025.14H273.24Z" fill="white"/>
<path d="M295.944 1038.81C295.944 1038.35 295.88 1037.91 295.752 1037.5C295.635 1037.08 295.443 1036.71 295.176 1036.39C294.909 1036.07 294.573 1035.82 294.168 1035.64C293.763 1035.45 293.277 1035.35 292.712 1035.35C291.656 1035.35 290.829 1035.65 290.232 1036.25C289.635 1036.85 289.245 1037.7 289.064 1038.81H295.944ZM289 1041.43C289.139 1042.98 289.576 1044.11 290.312 1044.82C291.059 1045.54 292.029 1045.9 293.224 1045.9C293.832 1045.9 294.355 1045.83 294.792 1045.69C295.24 1045.54 295.629 1045.38 295.96 1045.21C296.301 1045.03 296.605 1044.87 296.872 1044.73C297.149 1044.58 297.421 1044.5 297.688 1044.5C298.029 1044.5 298.296 1044.63 298.488 1044.89L299.768 1046.49C299.299 1047.03 298.781 1047.49 298.216 1047.85C297.651 1048.2 297.064 1048.48 296.456 1048.7C295.848 1048.9 295.235 1049.04 294.616 1049.11C293.997 1049.2 293.4 1049.24 292.824 1049.24C291.672 1049.24 290.595 1049.05 289.592 1048.68C288.6 1048.3 287.731 1047.74 286.984 1047C286.248 1046.25 285.667 1045.33 285.24 1044.23C284.813 1043.13 284.6 1041.86 284.6 1040.41C284.6 1039.29 284.781 1038.23 285.144 1037.24C285.517 1036.25 286.051 1035.38 286.744 1034.65C287.437 1033.91 288.28 1033.33 289.272 1032.9C290.264 1032.47 291.384 1032.25 292.632 1032.25C293.688 1032.25 294.659 1032.42 295.544 1032.76C296.44 1033.09 297.208 1033.58 297.848 1034.22C298.499 1034.86 299 1035.65 299.352 1036.58C299.715 1037.51 299.896 1038.57 299.896 1039.77C299.896 1040.1 299.88 1040.37 299.848 1040.58C299.816 1040.8 299.763 1040.97 299.688 1041.1C299.613 1041.22 299.512 1041.32 299.384 1041.37C299.256 1041.41 299.091 1041.43 298.888 1041.43H289Z" fill="white"/>
<path d="M319.633 1049H315.233V1035.67H307.921V1044.28C307.921 1044.74 308.027 1045.1 308.241 1045.37C308.465 1045.64 308.779 1045.77 309.185 1045.77C309.398 1045.77 309.579 1045.75 309.729 1045.7C309.878 1045.65 310.006 1045.6 310.113 1045.54C310.219 1045.48 310.315 1045.43 310.401 1045.38C310.497 1045.33 310.593 1045.3 310.689 1045.3C310.817 1045.3 310.923 1045.34 311.009 1045.4C311.094 1045.45 311.179 1045.55 311.265 1045.69L312.593 1047.8C311.985 1048.28 311.297 1048.64 310.529 1048.89C309.761 1049.13 308.966 1049.26 308.145 1049.26C307.398 1049.26 306.737 1049.15 306.161 1048.94C305.585 1048.71 305.099 1048.4 304.705 1047.99C304.31 1047.59 304.011 1047.1 303.809 1046.52C303.606 1045.94 303.505 1045.29 303.505 1044.57V1035.67H301.953C301.718 1035.67 301.515 1035.6 301.345 1035.45C301.185 1035.3 301.105 1035.08 301.105 1034.78V1033.05L303.745 1032.57L304.641 1028.3C304.758 1027.82 305.083 1027.58 305.617 1027.58H307.921V1032.6H319.633V1049ZM320.321 1027.78C320.321 1028.15 320.246 1028.49 320.097 1028.82C319.947 1029.14 319.745 1029.43 319.489 1029.67C319.243 1029.91 318.95 1030.1 318.609 1030.25C318.278 1030.39 317.921 1030.46 317.537 1030.46C317.174 1030.46 316.827 1030.39 316.497 1030.25C316.177 1030.1 315.894 1029.91 315.649 1029.67C315.403 1029.43 315.206 1029.14 315.057 1028.82C314.918 1028.49 314.849 1028.15 314.849 1027.78C314.849 1027.41 314.918 1027.06 315.057 1026.74C315.206 1026.41 315.403 1026.13 315.649 1025.88C315.894 1025.64 316.177 1025.44 316.497 1025.3C316.827 1025.16 317.174 1025.08 317.537 1025.08C317.921 1025.08 318.278 1025.16 318.609 1025.3C318.95 1025.44 319.243 1025.64 319.489 1025.88C319.745 1026.13 319.947 1026.41 320.097 1026.74C320.246 1027.06 320.321 1027.41 320.321 1027.78Z" fill="white"/>
<path d="M327.513 1034.42C327.844 1034.1 328.185 1033.81 328.537 1033.54C328.9 1033.28 329.279 1033.05 329.673 1032.86C330.079 1032.66 330.511 1032.52 330.969 1032.41C331.439 1032.3 331.945 1032.25 332.489 1032.25C333.385 1032.25 334.18 1032.4 334.873 1032.71C335.567 1033.02 336.148 1033.45 336.617 1034.01C337.097 1034.56 337.455 1035.22 337.689 1035.99C337.935 1036.76 338.057 1037.6 338.057 1038.52V1049H333.657V1038.52C333.657 1037.6 333.444 1036.89 333.017 1036.39C332.591 1035.88 331.961 1035.62 331.129 1035.62C330.511 1035.62 329.929 1035.76 329.385 1036.02C328.841 1036.29 328.324 1036.66 327.833 1037.14V1049H323.417V1032.5H326.137C326.692 1032.5 327.06 1032.76 327.241 1033.27L327.513 1034.42Z" fill="white"/>
<path d="M347.718 1040.14C348.624 1040.14 349.291 1039.91 349.718 1039.45C350.155 1038.99 350.374 1038.4 350.374 1037.67C350.374 1036.92 350.155 1036.32 349.718 1035.9C349.291 1035.46 348.624 1035.24 347.718 1035.24C346.811 1035.24 346.144 1035.46 345.718 1035.9C345.291 1036.32 345.078 1036.92 345.078 1037.67C345.078 1038.39 345.291 1038.98 345.718 1039.45C346.155 1039.91 346.822 1040.14 347.718 1040.14ZM351.894 1049.67C351.894 1049.38 351.803 1049.15 351.622 1048.97C351.44 1048.79 351.195 1048.64 350.886 1048.54C350.587 1048.43 350.23 1048.36 349.814 1048.31C349.398 1048.26 348.955 1048.22 348.486 1048.2C348.016 1048.17 347.531 1048.14 347.03 1048.12C346.528 1048.1 346.038 1048.06 345.558 1048.01C345.184 1048.23 344.875 1048.5 344.63 1048.81C344.395 1049.11 344.278 1049.45 344.278 1049.83C344.278 1050.1 344.336 1050.34 344.454 1050.57C344.582 1050.79 344.79 1050.98 345.078 1051.14C345.366 1051.3 345.744 1051.43 346.214 1051.51C346.683 1051.61 347.27 1051.66 347.974 1051.66C348.699 1051.66 349.312 1051.61 349.814 1051.51C350.315 1051.42 350.72 1051.28 351.03 1051.1C351.339 1050.93 351.558 1050.72 351.686 1050.47C351.824 1050.23 351.894 1049.96 351.894 1049.67ZM356.278 1033.05V1034.66C356.278 1034.92 356.203 1035.12 356.054 1035.27C355.915 1035.42 355.68 1035.53 355.35 1035.61L354.006 1035.88C354.187 1036.4 354.278 1036.96 354.278 1037.56C354.278 1038.38 354.107 1039.12 353.766 1039.78C353.435 1040.44 352.976 1041 352.39 1041.46C351.803 1041.92 351.11 1042.28 350.31 1042.54C349.51 1042.78 348.646 1042.9 347.718 1042.9C347.131 1042.9 346.582 1042.86 346.07 1042.76C345.622 1043.04 345.398 1043.34 345.398 1043.67C345.398 1043.98 345.547 1044.21 345.846 1044.34C346.155 1044.48 346.555 1044.58 347.046 1044.65C347.547 1044.7 348.112 1044.74 348.742 1044.76C349.382 1044.77 350.027 1044.8 350.678 1044.86C351.339 1044.91 351.984 1045.01 352.614 1045.14C353.254 1045.27 353.819 1045.49 354.31 1045.8C354.811 1046.1 355.211 1046.5 355.51 1047C355.819 1047.5 355.974 1048.15 355.974 1048.94C355.974 1049.67 355.792 1050.39 355.43 1051.08C355.067 1051.77 354.539 1052.39 353.846 1052.94C353.163 1053.48 352.32 1053.92 351.318 1054.25C350.315 1054.58 349.174 1054.74 347.894 1054.74C346.624 1054.74 345.52 1054.62 344.582 1054.38C343.654 1054.14 342.88 1053.82 342.262 1053.42C341.654 1053.02 341.2 1052.56 340.902 1052.04C340.603 1051.52 340.454 1050.97 340.454 1050.41C340.454 1049.67 340.678 1049.05 341.126 1048.54C341.574 1048.02 342.192 1047.61 342.982 1047.3C342.566 1047.07 342.23 1046.77 341.974 1046.39C341.728 1046.01 341.606 1045.51 341.606 1044.9C341.606 1044.41 341.782 1043.9 342.134 1043.35C342.496 1042.81 343.051 1042.36 343.798 1041.99C342.955 1041.54 342.288 1040.95 341.798 1040.2C341.307 1039.44 341.062 1038.56 341.062 1037.56C341.062 1036.74 341.227 1036 341.558 1035.34C341.899 1034.68 342.368 1034.12 342.966 1033.66C343.563 1033.19 344.267 1032.83 345.078 1032.58C345.888 1032.34 346.768 1032.22 347.718 1032.22C349.126 1032.22 350.368 1032.49 351.446 1033.05H356.278Z" fill="white"/>
</g>
<defs>
<filter id="filter0_f_135_207" x="203.393" y="0.392578" width="1246.02" height="1246.02" filterUnits="userSpaceOnUse" color-interpolation-filters="sRGB">
<feFlood flood-opacity="0" result="BackgroundImageFix"/>
<feBlend mode="normal" in="SourceGraphic" in2="BackgroundImageFix" result="shape"/>
<feGaussianBlur stdDeviation="167.5" result="effect1_foregroundBlur_135_207"/>
</filter>
<filter id="filter1_d_135_207" x="197.932" y="970.145" width="190.422" height="101.6" filterUnits="userSpaceOnUse" color-interpolation-filters="sRGB">
<feFlood flood-opacity="0" result="BackgroundImageFix"/>
<feColorMatrix in="SourceAlpha" type="matrix" values="0 0 0 0 0 0 0 0 0 0 0 0 0 0 0 0 0 0 127 0" result="hardAlpha"/>
<feOffset dy="4"/>
<feGaussianBlur stdDeviation="6.5"/>
<feComposite in2="hardAlpha" operator="out"/>
<feColorMatrix type="matrix" values="0 0 0 0 0.608958 0 0 0 0 0.787095 0 0 0 0 0.9875 0 0 0 1 0"/>
<feBlend mode="normal" in2="BackgroundImageFix" result="effect1_dropShadow_135_207"/>
<feBlend mode="normal" in="SourceGraphic" in2="effect1_dropShadow_135_207" result="shape"/>
</filter>
</defs>
</svg>
