
<svg width="839" height="572" viewBox="0 0 839 572" fill="none" xmlns="http://www.w3.org/2000/svg">
<path d="M809.747 437.63H631.225V364.79L796.974 344.57L809.747 372.68V437.63Z" fill="#2E353A"/>
<path d="M655.817 217.191H422.973V437.631H655.817V217.191Z" fill="#2E353A"/>
<path d="M408.637 235.01L398.727 224.76L540.696 137.25L680.065 223.18L670.176 233.42L540.696 153.595L408.637 235.01Z" fill="#2E353A"/>
<path d="M613.214 217.191H380.369V437.631H613.214V217.191Z" fill="white" stroke="#2E353A" stroke-width="0.887535" stroke-linecap="round" stroke-linejoin="round"/>
<path d="M496.792 145.426L380.369 217.192H613.214L496.792 145.426Z" fill="white" stroke="#2E353A" stroke-width="0.887535" stroke-linejoin="round"/>
<g style="mix-blend-mode:multiply">
<path d="M496.792 145.426L380.369 217.192V233.542L406.891 217.192L496.792 161.771L586.713 217.192L613.214 233.542V217.192L496.792 145.426Z" fill="#80BBFF"/>
</g>
<path d="M791.756 364.789H613.213V437.629H791.756V364.789Z" fill="white" stroke="#2E353A" stroke-width="0.887535" stroke-linecap="round" stroke-linejoin="round"/>
<path d="M773.762 364.789H631.225V437.629H773.762V364.789Z" fill="#80BBFF" stroke="#2E353A" stroke-width="0.887535" stroke-linecap="round" stroke-linejoin="round"/>
<g style="mix-blend-mode:multiply">
<path d="M791.756 364.789H613.213V380.399H791.756V364.789Z" fill="#80BBFF"/>
</g>
<path d="M631.225 386.109H773.742" stroke="#2E353A" stroke-width="0.887535" stroke-linecap="round" stroke-linejoin="round"/>
<path d="M631.225 396.891H773.742" stroke="#2E353A" stroke-width="0.887535" stroke-linecap="round" stroke-linejoin="round"/>
<path d="M631.225 407.68H773.742" stroke="#2E353A" stroke-width="0.887535" stroke-linecap="round" stroke-linejoin="round"/>
<path d="M631.225 418.461H773.742" stroke="#2E353A" stroke-width="0.887535" stroke-linecap="round" stroke-linejoin="round"/>
<path d="M631.225 429.238H773.742" stroke="#2E353A" stroke-width="0.887535" stroke-linecap="round" stroke-linejoin="round"/>
<path d="M446.389 356.16H399.58V437.63H446.389V356.16Z" fill="#2E353A"/>
<path d="M517.788 356.16H470.98V412.7H517.788V356.16Z" fill="white" stroke="#2E353A" stroke-width="0.887535" stroke-linecap="round" stroke-linejoin="round"/>
<path d="M517.788 382.039H470.98V386.839H517.788V382.039Z" fill="#2E353A"/>
<path d="M497.4 356.16H491.389V412.7H497.4V356.16Z" fill="#2E353A"/>
<path d="M603.608 356.16H556.799V412.7H603.608V356.16Z" fill="white" stroke="#2E353A" stroke-width="0.887535" stroke-linecap="round" stroke-linejoin="round"/>
<path d="M603.608 382.039H556.799V386.839H603.608V382.039Z" fill="#2E353A"/>
<path d="M583.218 356.16H577.207V412.7H583.218V356.16Z" fill="#2E353A"/>
<path d="M543.295 356.16H534.319V437.63H543.295V356.16Z" fill="white" stroke="#2E353A" stroke-width="0.887535" stroke-linecap="round" stroke-linejoin="round"/>
<path d="M464.828 356.16H455.852V437.63H464.828V356.16Z" fill="white" stroke="#2E353A" stroke-width="0.887535" stroke-linecap="round" stroke-linejoin="round"/>
<path d="M603.608 359.52H391.172V370.06H603.608V359.52Z" fill="#2E353A"/>
<path d="M603.608 354.25H391.172V364.79H603.608V354.25Z" fill="#80BBFF" stroke="#2E353A" stroke-width="0.887535" stroke-linecap="round" stroke-linejoin="round"/>
<path d="M364.733 235.01L354.823 224.76L496.791 137.25L636.161 223.18L626.271 233.42L496.791 153.595L364.733 235.01Z" fill="white" stroke="#2E353A" stroke-width="0.887535" stroke-linejoin="round"/>
<path d="M791.756 375.332H595.465L613.478 332.922H798.945L791.756 375.332Z" fill="#2E353A"/>
<path d="M636.16 223.18H676.368L540.696 137.25H496.791L636.16 223.18Z" fill="#2E353A"/>
<path d="M626.271 233.43H670.175L680.065 223.18H636.16L626.271 233.43Z" fill="#2E353A"/>
<path d="M424.782 249.789H399.58V282.379H424.782V249.789Z" fill="white" stroke="#2E353A" stroke-width="0.887535" stroke-linecap="round" stroke-linejoin="round"/>
<path d="M424.782 266.078H399.58V282.378H424.782V266.078Z" fill="#2E353A"/>
<path d="M424.782 264.27H399.58V267.9H424.782V264.27Z" fill="white" stroke="#2E353A" stroke-width="0.887535" stroke-linecap="round" stroke-linejoin="round"/>
<path d="M424.782 296.75H399.58V329.34H424.782V296.75Z" fill="white" stroke="#2E353A" stroke-width="0.887535" stroke-linecap="round" stroke-linejoin="round"/>
<path d="M424.782 312.879H399.58V329.319H424.782V312.879Z" fill="#2E353A"/>
<path d="M595.2 249.789H569.998V282.379H595.2V249.789Z" fill="white" stroke="#2E353A" stroke-width="0.887535" stroke-linecap="round" stroke-linejoin="round"/>
<path d="M595.2 266.078H569.998V282.378H595.2V266.078Z" fill="#2E353A"/>
<path d="M595.2 296.75H569.998V329.34H595.2V296.75Z" fill="white" stroke="#2E353A" stroke-width="0.887535" stroke-linecap="round" stroke-linejoin="round"/>
<path d="M595.2 311.059H569.998V329.318H595.2V311.059Z" fill="#2E353A"/>
<path d="M506.985 249.789H481.784V282.379H506.985V249.789Z" fill="white" stroke="#2E353A" stroke-width="0.887535" stroke-linecap="round" stroke-linejoin="round"/>
<path d="M506.985 266.078H481.784V282.378H506.985V266.078Z" fill="#2E353A"/>
<path d="M506.985 296.75H481.784V329.34H506.985V296.75Z" fill="white" stroke="#2E353A" stroke-width="0.887535" stroke-linecap="round" stroke-linejoin="round"/>
<path d="M506.985 311.059H481.784V329.318H506.985V311.059Z" fill="#2E353A"/>
<path d="M506.985 264.27H481.784V267.9H506.985V264.27Z" fill="white" stroke="#2E353A" stroke-width="0.887535" stroke-linecap="round" stroke-linejoin="round"/>
<path d="M595.2 264.27H569.998V267.9H595.2V264.27Z" fill="white" stroke="#2E353A" stroke-width="0.887535" stroke-linecap="round" stroke-linejoin="round"/>
<path d="M424.782 309.25H399.58V312.88H424.782V309.25Z" fill="white" stroke="#2E353A" stroke-width="0.887535" stroke-linecap="round" stroke-linejoin="round"/>
<path d="M506.985 309.25H481.784V312.88H506.985V309.25Z" fill="white" stroke="#2E353A" stroke-width="0.887535" stroke-linecap="round" stroke-linejoin="round"/>
<path d="M595.2 309.25H569.998V312.88H595.2V309.25Z" fill="white" stroke="#2E353A" stroke-width="0.887535" stroke-linecap="round" stroke-linejoin="round"/>
<path d="M400.898 227.02V235.01" stroke="#2E353A" stroke-width="0.887535" stroke-linecap="round" stroke-linejoin="round"/>
<path d="M418.912 227.02V235.01" stroke="#2E353A" stroke-width="0.887535" stroke-linecap="round" stroke-linejoin="round"/>
<path d="M408.637 235.012V243.012" stroke="#2E353A" stroke-width="0.887535" stroke-linecap="round" stroke-linejoin="round"/>
<path d="M429.207 235.012V243.012" stroke="#2E353A" stroke-width="0.887535" stroke-linecap="round" stroke-linejoin="round"/>
<path d="M392.917 235.012H434.06" stroke="#2E353A" stroke-width="0.887535" stroke-linecap="round" stroke-linejoin="round"/>
<path d="M400.898 333.801V341.791" stroke="#2E353A" stroke-width="0.887535" stroke-linecap="round" stroke-linejoin="round"/>
<path d="M418.912 333.801V341.791" stroke="#2E353A" stroke-width="0.887535" stroke-linecap="round" stroke-linejoin="round"/>
<path d="M408.637 341.789V349.789" stroke="#2E353A" stroke-width="0.887535" stroke-linecap="round" stroke-linejoin="round"/>
<path d="M429.207 341.789V349.789" stroke="#2E353A" stroke-width="0.887535" stroke-linecap="round" stroke-linejoin="round"/>
<path d="M392.917 341.789H434.06" stroke="#2E353A" stroke-width="0.887535" stroke-linecap="round" stroke-linejoin="round"/>
<path d="M437.391 258.07V266.08" stroke="#2E353A" stroke-width="0.887535" stroke-linecap="round" stroke-linejoin="round"/>
<path d="M455.405 258.07V266.08" stroke="#2E353A" stroke-width="0.887535" stroke-linecap="round" stroke-linejoin="round"/>
<path d="M445.129 266.078V274.078" stroke="#2E353A" stroke-width="0.887535" stroke-linecap="round" stroke-linejoin="round"/>
<path d="M465.7 266.078V274.078" stroke="#2E353A" stroke-width="0.887535" stroke-linecap="round" stroke-linejoin="round"/>
<path d="M429.41 266.078H470.553" stroke="#2E353A" stroke-width="0.887535" stroke-linecap="round" stroke-linejoin="round"/>
<path d="M437.391 274.078H470.553" stroke="#2E353A" stroke-width="0.887535" stroke-linecap="round" stroke-linejoin="round"/>
<path d="M437.391 274.371V282.361" stroke="#2E353A" stroke-width="0.887535" stroke-linecap="round" stroke-linejoin="round"/>
<path d="M455.405 274.371V282.361" stroke="#2E353A" stroke-width="0.887535" stroke-linecap="round" stroke-linejoin="round"/>
<path d="M445.129 282.359V290.359" stroke="#2E353A" stroke-width="0.887535" stroke-linecap="round" stroke-linejoin="round"/>
<path d="M465.7 282.359V290.359" stroke="#2E353A" stroke-width="0.887535" stroke-linecap="round" stroke-linejoin="round"/>
<path d="M429.41 282.359H470.553" stroke="#2E353A" stroke-width="0.887535" stroke-linecap="round" stroke-linejoin="round"/>
<path d="M527.11 311.422V319.422" stroke="#2E353A" stroke-width="0.887535" stroke-linecap="round" stroke-linejoin="round"/>
<path d="M545.123 311.422V319.422" stroke="#2E353A" stroke-width="0.887535" stroke-linecap="round" stroke-linejoin="round"/>
<path d="M534.848 319.422V327.412" stroke="#2E353A" stroke-width="0.887535" stroke-linecap="round" stroke-linejoin="round"/>
<path d="M555.417 319.422V327.412" stroke="#2E353A" stroke-width="0.887535" stroke-linecap="round" stroke-linejoin="round"/>
<path d="M519.129 319.422H560.272" stroke="#2E353A" stroke-width="0.887535" stroke-linecap="round" stroke-linejoin="round"/>
<path d="M527.11 327.41H560.272" stroke="#2E353A" stroke-width="0.887535" stroke-linecap="round" stroke-linejoin="round"/>
<path d="M527.11 327.719V335.709" stroke="#2E353A" stroke-width="0.887535" stroke-linecap="round" stroke-linejoin="round"/>
<path d="M545.123 327.719V335.709" stroke="#2E353A" stroke-width="0.887535" stroke-linecap="round" stroke-linejoin="round"/>
<path d="M534.848 335.711V343.711" stroke="#2E353A" stroke-width="0.887535" stroke-linecap="round" stroke-linejoin="round"/>
<path d="M555.417 335.711V343.711" stroke="#2E353A" stroke-width="0.887535" stroke-linecap="round" stroke-linejoin="round"/>
<path d="M519.129 335.711H560.272" stroke="#2E353A" stroke-width="0.887535" stroke-linecap="round" stroke-linejoin="round"/>
<path d="M44.0382 460.209C83.9625 473.399 186.556 459.129 176.037 474.499C165.517 489.869 85.1606 484.099 62.3148 500.719C39.469 517.339 143.403 516.009 139.727 521.049C136.051 526.099 44.6068 529.549 50.6177 536.349H666.785C667.78 531.029 660.692 524.569 649.117 520.129C557.368 517.129 246.463 506.139 279.036 495.519C317.213 483.089 441.86 470.669 464.645 460.939C487.43 451.209 386.502 450.129 369.606 445.819C364.164 444.419 363.514 443.059 365.281 441.869L368.185 442.019V440.539C372.8 439.209 377.558 438.219 382.4 437.579H368.185V434.769L366.154 435.789L362.682 437.579H361.565C362.988 434.069 363.954 430.449 364.448 426.779C365.24 420.439 354.092 434.769 354.092 434.769C354.092 434.769 355.676 429.909 354.092 426.779C352.508 423.649 347.715 431.009 347.715 431.009C347.715 431.009 353.3 413.419 347.715 401.979C342.131 390.549 335.835 431.009 335.835 431.009C335.835 431.009 334.982 415.309 327.814 415.009C322.006 414.749 325.6 425.419 327.184 429.469C325.955 427.189 324.143 425.149 321.864 423.469C316.726 419.549 321.864 432.529 321.864 432.529C321.864 432.529 319.833 428.679 306.41 426.779C292.987 424.879 311.893 435.179 311.893 435.179C306.074 433.839 300.17 432.759 294.205 431.929C291.24 431.549 290.997 432.129 291.971 433.099L290.042 434.089L283.828 437.329C285.864 432.569 287.226 427.649 287.89 422.639C288.905 414.539 274.71 432.829 274.71 432.829C274.71 432.829 276.741 426.679 274.71 422.639C272.679 418.609 266.587 428.029 266.587 428.029C266.587 428.029 273.695 405.629 266.587 391.069C259.48 376.509 251.458 428.029 251.458 428.029C251.458 428.029 250.362 408.069 241.304 407.659C233.933 407.339 238.461 420.809 240.492 426.019C238.929 423.139 236.633 420.569 233.75 418.439C227.191 413.449 233.75 429.969 233.75 429.969C233.75 429.969 231.171 425.109 214.072 422.639C196.973 420.179 221.038 433.349 221.038 433.349C213.629 431.649 206.111 430.269 198.517 429.229C187.145 427.729 207.168 437.609 207.168 437.609H56.2226C56.2226 437.609 4.15454 447.049 44.0382 460.209ZM292.641 433.749C294.679 435.189 296.859 436.499 299.16 437.659H292.641V433.749Z" fill="#2E353A"/>
<path d="M536.634 462.179C513.565 470.709 456.279 479.659 456.279 479.659C447.161 480.649 459.507 489.969 522.826 485.349L631.185 437.629H423.542C430.487 440.479 479.956 447.059 508.102 447.059C536.248 447.059 559.703 453.629 536.634 462.179Z" fill="#2E353A"/>
<path d="M702.526 437.628H743.465C722.914 436.988 702.526 437.628 702.526 437.628Z" fill="#2E353A"/>
<path d="M770.068 439.52L672.816 489.56C685.142 489.19 698.038 488.949 710.527 488.699C764.402 487.669 744.846 469 748.501 462.42C752.157 455.84 782.74 456.919 785.176 445.939C785.867 442.829 779.511 440.82 770.068 439.52Z" fill="#2E353A"/>
<g opacity="0.3">
<path d="M44.0382 460.209C83.9625 473.399 186.556 459.129 176.037 474.499C165.517 489.869 85.1606 484.099 62.3148 500.719C39.469 517.339 143.403 516.009 139.727 521.049C136.051 526.099 44.6068 529.549 50.6177 536.349H666.785C667.78 531.029 660.692 524.569 649.117 520.129C557.368 517.129 246.463 506.139 279.036 495.519C317.213 483.089 441.86 470.669 464.645 460.939C487.43 451.209 386.502 450.129 369.606 445.819C364.164 444.419 363.514 443.059 365.281 441.869L368.185 442.019V440.539C372.8 439.209 377.558 438.219 382.4 437.579H368.185V434.769L366.154 435.789L362.682 437.579H361.565C362.988 434.069 363.954 430.449 364.448 426.779C365.24 420.439 354.092 434.769 354.092 434.769C354.092 434.769 355.676 429.909 354.092 426.779C352.508 423.649 347.715 431.009 347.715 431.009C347.715 431.009 353.3 413.419 347.715 401.979C342.131 390.549 335.835 431.009 335.835 431.009C335.835 431.009 334.982 415.309 327.814 415.009C322.006 414.749 325.6 425.419 327.184 429.469C325.955 427.189 324.143 425.149 321.864 423.469C316.726 419.549 321.864 432.529 321.864 432.529C321.864 432.529 319.833 428.679 306.41 426.779C292.987 424.879 311.893 435.179 311.893 435.179C306.074 433.839 300.17 432.759 294.205 431.929C291.24 431.549 290.997 432.129 291.971 433.099L290.042 434.089L283.828 437.329C285.864 432.569 287.226 427.649 287.89 422.639C288.905 414.539 274.71 432.829 274.71 432.829C274.71 432.829 276.741 426.679 274.71 422.639C272.679 418.609 266.587 428.029 266.587 428.029C266.587 428.029 273.695 405.629 266.587 391.069C259.48 376.509 251.458 428.029 251.458 428.029C251.458 428.029 250.362 408.069 241.304 407.659C233.933 407.339 238.461 420.809 240.492 426.019C238.929 423.139 236.633 420.569 233.75 418.439C227.191 413.449 233.75 429.969 233.75 429.969C233.75 429.969 231.171 425.109 214.072 422.639C196.973 420.179 221.038 433.349 221.038 433.349C213.629 431.649 206.111 430.269 198.517 429.229C187.145 427.729 207.168 437.609 207.168 437.609H56.2226C56.2226 437.609 4.15454 447.049 44.0382 460.209ZM292.641 433.749C294.679 435.189 296.859 436.499 299.16 437.659H292.641V433.749Z" fill="white"/>
<path d="M536.634 462.179C513.565 470.709 456.279 479.659 456.279 479.659C447.161 480.649 459.507 489.969 522.826 485.349L631.185 437.629H423.542C430.487 440.479 479.956 447.059 508.102 447.059C536.248 447.059 559.703 453.629 536.634 462.179Z" fill="white"/>
<path d="M702.525 437.628H743.464C722.913 436.988 702.525 437.628 702.525 437.628Z" fill="white"/>
<path d="M770.068 439.52L672.816 489.56C685.142 489.19 698.038 488.949 710.527 488.699C764.402 487.669 744.846 469 748.501 462.42C752.157 455.84 782.74 456.919 785.176 445.939C785.867 442.829 779.511 440.82 770.068 439.52Z" fill="white"/>
</g>
<path d="M220.582 165.895V296.688H458.849V165.895H220.582ZM242.717 181.965C241.416 181.965 240.144 181.657 239.062 181.08C237.98 180.502 237.137 179.682 236.639 178.722C236.141 177.762 236.01 176.705 236.264 175.686C236.518 174.667 237.145 173.731 238.065 172.996C238.985 172.261 240.157 171.761 241.434 171.558C242.71 171.356 244.033 171.46 245.235 171.857C246.438 172.255 247.465 172.928 248.188 173.792C248.911 174.656 249.297 175.672 249.297 176.711C249.297 178.105 248.604 179.441 247.37 180.426C246.136 181.411 244.462 181.965 242.717 181.965ZM436.49 181.965C435.189 181.965 433.917 181.657 432.835 181.08C431.753 180.502 430.91 179.682 430.412 178.722C429.914 177.762 429.783 176.705 430.037 175.686C430.291 174.667 430.918 173.731 431.838 172.996C432.758 172.261 433.93 171.761 435.207 171.558C436.483 171.356 437.806 171.46 439.008 171.857C440.211 172.255 441.238 172.928 441.961 173.792C442.684 174.656 443.07 175.672 443.07 176.711C443.065 178.103 442.37 179.437 441.137 180.421C439.904 181.406 438.234 181.961 436.49 181.965Z" fill="#80BBFF" stroke="#2E353A" stroke-miterlimit="10"/>
<path d="M443.071 176.715C443.071 177.754 442.685 178.77 441.962 179.634C441.239 180.498 440.212 181.171 439.01 181.569C437.807 181.966 436.484 182.07 435.208 181.868C433.932 181.665 432.759 181.165 431.839 180.43C430.919 179.695 430.292 178.759 430.039 177.74C429.785 176.721 429.915 175.664 430.413 174.704C430.911 173.744 431.754 172.924 432.836 172.346C433.918 171.769 435.19 171.461 436.492 171.461H242.719C244.02 171.461 245.292 171.769 246.374 172.346C247.456 172.924 248.299 173.744 248.797 174.704C249.295 175.664 249.426 176.721 249.172 177.74C248.918 178.759 248.291 179.695 247.371 180.43C246.451 181.165 245.279 181.665 244.002 181.868C242.726 182.07 241.403 181.966 240.201 181.569C238.999 181.171 237.971 180.498 237.248 179.634C236.525 178.77 236.139 177.754 236.139 176.715C236.139 175.321 236.832 173.985 238.066 173C239.3 172.015 240.974 171.461 242.719 171.461H227.448V289.482H449.732V171.461H436.492C438.237 171.461 439.91 172.015 441.144 173C442.378 173.985 443.071 175.321 443.071 176.715Z" fill="#2E353A"/>
<path d="M242.719 115.305C240.828 115.308 238.981 115.759 237.41 116.6C235.84 117.441 234.617 118.635 233.896 120.031C233.176 121.427 232.989 122.962 233.36 124.442C233.732 125.923 234.644 127.282 235.983 128.348C237.321 129.415 239.026 130.141 240.88 130.434C242.735 130.727 244.657 130.575 246.404 129.997C248.15 129.418 249.643 128.439 250.693 127.184C251.743 125.928 252.304 124.452 252.304 122.942C252.304 121.938 252.056 120.943 251.574 120.016C251.092 119.088 250.385 118.245 249.495 117.536C248.605 116.827 247.548 116.264 246.385 115.881C245.222 115.499 243.976 115.303 242.719 115.305ZM242.719 128.034C241.458 128.031 240.228 127.729 239.182 127.168C238.136 126.606 237.322 125.81 236.842 124.879C236.362 123.949 236.239 122.926 236.487 121.939C236.736 120.952 237.345 120.047 238.237 119.336C239.13 118.626 240.266 118.142 241.502 117.947C242.739 117.752 244.02 117.854 245.184 118.24C246.348 118.626 247.342 119.278 248.042 120.115C248.742 120.952 249.115 121.936 249.115 122.942C249.121 123.616 248.959 124.283 248.64 124.907C248.321 125.53 247.851 126.097 247.256 126.575C246.662 127.053 245.955 127.432 245.176 127.691C244.397 127.949 243.562 128.083 242.719 128.083V128.034Z" fill="white" stroke="#2E353A" stroke-width="0.916642" stroke-linecap="round" stroke-linejoin="round"/>
<path d="M242.718 133.645C240.822 133.645 238.968 134.094 237.391 134.936C235.814 135.777 234.586 136.974 233.861 138.373C233.136 139.773 232.947 141.312 233.319 142.797C233.69 144.283 234.605 145.646 235.948 146.716C237.29 147.786 239 148.513 240.861 148.807C242.721 149.1 244.649 148.947 246.4 148.365C248.151 147.783 249.647 146.799 250.698 145.539C251.749 144.278 252.307 142.797 252.303 141.282C252.303 140.278 252.055 139.283 251.573 138.356C251.091 137.428 250.385 136.585 249.495 135.876C248.604 135.166 247.548 134.604 246.385 134.221C245.222 133.838 243.976 133.642 242.718 133.645ZM242.718 146.39C241.453 146.39 240.216 146.09 239.164 145.529C238.112 144.968 237.292 144.17 236.808 143.237C236.324 142.303 236.197 141.276 236.444 140.286C236.691 139.295 237.3 138.385 238.195 137.67C239.09 136.956 240.229 136.469 241.47 136.272C242.711 136.075 243.997 136.176 245.166 136.563C246.335 136.95 247.334 137.604 248.037 138.444C248.74 139.284 249.115 140.272 249.115 141.282C249.115 142.637 248.441 143.936 247.241 144.894C246.042 145.852 244.415 146.39 242.718 146.39Z" fill="white" stroke="#2E353A" stroke-width="0.916642" stroke-linecap="round" stroke-linejoin="round"/>
<path d="M242.719 149.813C240.828 149.816 238.981 150.266 237.41 151.108C235.84 151.949 234.617 153.143 233.896 154.539C233.176 155.934 232.989 157.47 233.36 158.95C233.732 160.43 234.644 161.79 235.983 162.856C237.321 163.923 239.026 164.649 240.88 164.942C242.735 165.235 244.657 165.083 246.404 164.505C248.15 163.926 249.643 162.947 250.693 161.692C251.743 160.436 252.304 158.96 252.304 157.45C252.304 156.446 252.056 155.451 251.574 154.524C251.092 153.596 250.385 152.753 249.495 152.044C248.605 151.334 247.548 150.772 246.385 150.389C245.222 150.006 243.976 149.81 242.719 149.813ZM242.719 162.542C241.458 162.539 240.228 162.237 239.182 161.676C238.136 161.114 237.322 160.318 236.842 159.387C236.362 158.457 236.239 157.433 236.487 156.447C236.736 155.46 237.345 154.554 238.237 153.844C239.13 153.134 240.266 152.65 241.502 152.455C242.739 152.26 244.02 152.362 245.184 152.748C246.348 153.133 247.342 153.786 248.042 154.623C248.742 155.46 249.115 156.444 249.115 157.45C249.11 158.802 248.434 160.097 247.235 161.051C246.036 162.006 244.412 162.542 242.719 162.542Z" fill="white" stroke="#2E353A" stroke-width="0.916642" stroke-linecap="round" stroke-linejoin="round"/>
<path d="M242.717 140.455C242.27 140.455 241.841 140.313 241.525 140.061C241.209 139.809 241.032 139.466 241.032 139.109V126.51C241.032 126.153 241.209 125.811 241.525 125.558C241.841 125.306 242.27 125.164 242.717 125.164C243.166 125.164 243.597 125.305 243.916 125.557C244.235 125.809 244.418 126.152 244.423 126.51V139.109C244.418 139.468 244.235 139.81 243.916 140.062C243.597 140.314 243.166 140.455 242.717 140.455Z" fill="white" stroke="#2E353A" stroke-width="0.916642" stroke-linecap="round" stroke-linejoin="round"/>
<path d="M242.717 157.787C242.27 157.787 241.841 157.645 241.525 157.393C241.209 157.141 241.032 156.798 241.032 156.441V143.842C241.032 143.485 241.209 143.143 241.525 142.89C241.841 142.638 242.27 142.496 242.717 142.496C243.166 142.496 243.597 142.637 243.916 142.889C244.235 143.141 244.418 143.484 244.423 143.842V156.441C244.418 156.8 244.235 157.142 243.916 157.394C243.597 157.646 243.166 157.787 242.717 157.787Z" fill="white" stroke="#2E353A" stroke-width="0.916642" stroke-linecap="round" stroke-linejoin="round"/>
<path d="M242.717 175.154C242.27 175.154 241.841 175.013 241.525 174.76C241.209 174.508 241.032 174.166 241.032 173.809V161.209C241.032 161.032 241.075 160.857 241.16 160.694C241.245 160.531 241.369 160.382 241.525 160.257C241.682 160.133 241.868 160.033 242.072 159.966C242.277 159.898 242.496 159.863 242.717 159.863C243.166 159.863 243.597 160.005 243.916 160.256C244.235 160.508 244.418 160.851 244.423 161.209V173.809C244.418 174.167 244.235 174.509 243.916 174.761C243.597 175.013 243.166 175.155 242.717 175.154Z" fill="white" stroke="#2E353A" stroke-width="0.916642" stroke-linecap="round" stroke-linejoin="round"/>
<path d="M436.489 115.305C434.598 115.308 432.751 115.759 431.181 116.6C429.61 117.441 428.388 118.635 427.667 120.031C426.946 121.427 426.76 122.962 427.131 124.442C427.502 125.923 428.415 127.282 429.753 128.348C431.092 129.415 432.796 130.141 434.651 130.434C436.506 130.727 438.428 130.575 440.174 129.997C441.921 129.418 443.414 128.439 444.464 127.184C445.514 125.928 446.074 124.452 446.074 122.942C446.074 121.938 445.826 120.943 445.344 120.016C444.862 119.088 444.156 118.245 443.266 117.536C442.375 116.827 441.318 116.264 440.156 115.881C438.993 115.499 437.747 115.303 436.489 115.305ZM436.489 128.034C435.229 128.031 433.998 127.729 432.952 127.168C431.906 126.606 431.092 125.81 430.612 124.879C430.133 123.949 430.01 122.926 430.258 121.939C430.506 120.952 431.115 120.047 432.008 119.336C432.9 118.626 434.036 118.142 435.273 117.947C436.509 117.752 437.79 117.854 438.954 118.24C440.118 118.626 441.113 119.278 441.813 120.115C442.512 120.952 442.886 121.936 442.886 122.942C442.891 123.616 442.73 124.283 442.411 124.907C442.092 125.53 441.621 126.097 441.027 126.575C440.432 127.053 439.725 127.432 438.946 127.691C438.168 127.949 437.333 128.083 436.489 128.083V128.034Z" fill="white" stroke="#2E353A" stroke-width="0.916642" stroke-linecap="round" stroke-linejoin="round"/>
<path d="M436.492 133.645C434.595 133.645 432.741 134.094 431.164 134.936C429.588 135.777 428.359 136.974 427.634 138.373C426.909 139.773 426.721 141.312 427.092 142.797C427.464 144.283 428.379 145.646 429.721 146.716C431.064 147.786 432.774 148.513 434.634 148.807C436.495 149.1 438.423 148.947 440.174 148.365C441.925 147.783 443.42 146.799 444.471 145.539C445.522 144.278 446.081 142.797 446.077 141.282C446.077 140.278 445.829 139.283 445.347 138.356C444.865 137.428 444.158 136.585 443.268 135.876C442.378 135.166 441.321 134.604 440.158 134.221C438.995 133.838 437.749 133.642 436.492 133.645ZM436.492 146.39C435.226 146.39 433.99 146.09 432.938 145.529C431.886 144.968 431.066 144.17 430.582 143.237C430.098 142.303 429.971 141.276 430.218 140.286C430.465 139.295 431.074 138.385 431.968 137.67C432.863 136.956 434.003 136.469 435.244 136.272C436.485 136.075 437.771 136.176 438.94 136.563C440.108 136.95 441.108 137.604 441.81 138.444C442.513 139.284 442.888 140.272 442.888 141.282C442.888 141.953 442.723 142.617 442.402 143.237C442.08 143.856 441.609 144.42 441.015 144.894C440.421 145.368 439.716 145.744 438.94 146.001C438.164 146.258 437.332 146.39 436.492 146.39Z" fill="white" stroke="#2E353A" stroke-width="0.916642" stroke-linecap="round" stroke-linejoin="round"/>
<path d="M436.489 149.813C434.598 149.816 432.751 150.266 431.181 151.108C429.61 151.949 428.388 153.143 427.667 154.539C426.946 155.934 426.76 157.47 427.131 158.95C427.502 160.43 428.415 161.79 429.753 162.856C431.092 163.923 432.796 164.649 434.651 164.942C436.506 165.235 438.428 165.083 440.174 164.505C441.921 163.926 443.414 162.947 444.464 161.692C445.514 160.436 446.074 158.96 446.074 157.45C446.074 156.446 445.826 155.451 445.344 154.524C444.862 153.596 444.156 152.753 443.266 152.044C442.375 151.334 441.318 150.772 440.156 150.389C438.993 150.006 437.747 149.81 436.489 149.813ZM436.489 162.542C435.229 162.539 433.998 162.237 432.952 161.676C431.906 161.114 431.092 160.318 430.612 159.387C430.133 158.457 430.01 157.433 430.258 156.447C430.506 155.46 431.115 154.554 432.008 153.844C432.9 153.134 434.036 152.65 435.273 152.455C436.509 152.26 437.79 152.362 438.954 152.748C440.118 153.133 441.113 153.786 441.813 154.623C442.512 155.46 442.886 156.444 442.886 157.45C442.881 158.802 442.204 160.097 441.005 161.051C439.806 162.006 438.182 162.542 436.489 162.542Z" fill="white" stroke="#2E353A" stroke-width="0.916642" stroke-linecap="round" stroke-linejoin="round"/>
<path d="M436.491 140.455C436.044 140.455 435.615 140.313 435.299 140.061C434.983 139.809 434.805 139.466 434.805 139.109V126.51C434.805 126.153 434.983 125.811 435.299 125.558C435.615 125.306 436.044 125.164 436.491 125.164C436.939 125.164 437.37 125.305 437.69 125.557C438.009 125.809 438.191 126.152 438.196 126.51V139.109C438.191 139.468 438.009 139.81 437.69 140.062C437.37 140.314 436.939 140.455 436.491 140.455Z" fill="white" stroke="#2E353A" stroke-width="0.916642" stroke-linecap="round" stroke-linejoin="round"/>
<path d="M436.491 157.787C436.044 157.787 435.615 157.645 435.299 157.393C434.983 157.141 434.805 156.798 434.805 156.441V143.842C434.805 143.485 434.983 143.143 435.299 142.89C435.615 142.638 436.044 142.496 436.491 142.496C436.939 142.496 437.37 142.637 437.69 142.889C438.009 143.141 438.191 143.484 438.196 143.842V156.441C438.191 156.8 438.009 157.142 437.69 157.394C437.37 157.646 436.939 157.787 436.491 157.787Z" fill="white" stroke="#2E353A" stroke-width="0.916642" stroke-linecap="round" stroke-linejoin="round"/>
<path d="M436.491 175.154C436.044 175.154 435.615 175.013 435.299 174.76C434.983 174.508 434.805 174.166 434.805 173.809V161.209C434.805 161.032 434.849 160.857 434.933 160.694C435.018 160.531 435.142 160.382 435.299 160.257C435.455 160.133 435.641 160.033 435.846 159.966C436.05 159.898 436.269 159.863 436.491 159.863C436.939 159.863 437.37 160.005 437.69 160.256C438.009 160.508 438.191 160.851 438.196 161.209V173.809C438.191 174.167 438.009 174.509 437.69 174.761C437.37 175.013 436.939 175.155 436.491 175.154Z" fill="white" stroke="#2E353A" stroke-width="0.916642" stroke-linecap="round" stroke-linejoin="round"/>
<path d="M485.96 119.342H113.847L102.15 93.5273H511.649L485.96 119.342Z" fill="#2E353A" stroke="#2E353A" stroke-width="0.887535" stroke-linecap="round" stroke-linejoin="round"/>
<path d="M476.476 119.342H104.363L92.666 93.5273H502.185L476.476 119.342Z" fill="white" stroke="#2E353A" stroke-width="0.887535" stroke-linecap="round" stroke-linejoin="round"/>
<path d="M173.429 529.4H142.989L152.188 22H157.59L173.429 39.951V529.4Z" fill="#2E353A" stroke="#2E353A" stroke-width="0.887535" stroke-linecap="round" stroke-linejoin="round"/>
<path d="M168.007 529.4H137.567V39.951L152.188 22L168.007 39.951V529.4Z" fill="white" stroke="#2E353A" stroke-width="0.887535" stroke-linecap="round" stroke-linejoin="round"/>
<path d="M142.989 529.4V498.18" stroke="#2E353A" stroke-width="0.887535" stroke-linecap="round" stroke-linejoin="round"/>
<path d="M148.309 529.401V415.391" stroke="#2E353A" stroke-width="0.887535" stroke-linecap="round" stroke-linejoin="round"/>
<path d="M142.989 493.452V482.102" stroke="#2E353A" stroke-width="0.887535" stroke-linecap="round" stroke-linejoin="round"/>
<path d="M158.2 328.44V317.09" stroke="#2E353A" stroke-width="0.887535" stroke-linecap="round" stroke-linejoin="round"/>
<path d="M142.989 44.8002V33.4492" stroke="#2E353A" stroke-width="0.887535" stroke-linecap="round" stroke-linejoin="round"/>
<path d="M142.989 59.7495V48.3984" stroke="#2E353A" stroke-width="0.887535" stroke-linecap="round" stroke-linejoin="round"/>
<path d="M158.2 400.401V341.191" stroke="#2E353A" stroke-width="0.887535" stroke-linecap="round" stroke-linejoin="round"/>
<path d="M100.383 103.176H125.869" stroke="#2E353A" stroke-width="0.887535" stroke-linecap="round" stroke-linejoin="round"/>
<path d="M195.118 103.176H220.583" stroke="#2E353A" stroke-width="0.887535" stroke-linecap="round" stroke-linejoin="round"/>
<path d="M207.85 107.91H216.805" stroke="#2E353A" stroke-width="0.887535" stroke-linecap="round" stroke-linejoin="round"/>
<path d="M253.075 107.91H306.239" stroke="#2E353A" stroke-width="0.887535" stroke-linecap="round" stroke-linejoin="round"/>
<path d="M488.438 107.91H479.542" stroke="#2E353A" stroke-width="0.887535" stroke-linecap="round" stroke-linejoin="round"/>
<path d="M484.274 111.219H454.076" stroke="#2E353A" stroke-width="0.887535" stroke-linecap="round" stroke-linejoin="round"/>
<path d="M75.7705 536.911H95.6921C95.6921 536.911 59.5246 511.161 75.7705 513.781C92.0164 516.411 106.232 525.561 106.232 525.561C106.232 525.561 87.0208 511.121 100.302 513.751C113.583 516.381 113.035 520.721 113.035 520.721C113.035 520.721 114.07 489.541 125.788 498.151C132.59 502.901 136.79 509.591 137.485 516.781C137.485 516.781 162.524 492.051 167.946 493.421C173.368 494.781 173.368 509.911 173.368 509.911C173.368 509.911 215.425 482.541 207.789 498.151C200.153 513.771 195.056 519.641 195.056 519.641C195.056 519.641 214.795 505.711 212.277 513.751C211.202 517.631 209.7 521.431 207.789 525.101C207.789 525.101 237.478 532.531 233.092 532.511C228.706 532.501 220.522 537.001 220.522 537.001C220.522 537.001 270.661 530.521 261.137 537.001C251.612 543.491 173.327 542.401 173.327 542.401C173.327 542.401 211.566 549.881 195.117 549.881C178.668 549.881 152.797 544.461 152.797 544.461C152.797 544.461 114.212 550.951 100.383 549.881C86.5538 548.811 125.869 544.461 125.869 544.461C125.869 544.461 51.0565 544.531 75.7705 536.911Z" fill="#2E353A" stroke="#2E353A" stroke-width="0.916642" stroke-linecap="round" stroke-linejoin="round"/>
<g filter="url(#filter0_d_1791_710)">
<path d="M261.225 194.785L254.025 218.001H249.689L244.937 202.817C244.862 202.604 244.788 202.369 244.713 202.113C244.638 201.857 244.569 201.585 244.505 201.297C244.441 201.585 244.372 201.857 244.297 202.113C244.222 202.369 244.148 202.604 244.073 202.817L239.273 218.001H234.921L227.737 194.785H231.769C232.185 194.785 232.532 194.881 232.809 195.073C233.097 195.265 233.284 195.521 233.369 195.841L236.969 208.929C237.054 209.292 237.14 209.686 237.225 210.113C237.321 210.529 237.412 210.972 237.497 211.441C237.593 210.961 237.694 210.513 237.801 210.097C237.908 209.681 238.025 209.292 238.153 208.929L242.345 195.841C242.43 195.574 242.612 195.334 242.889 195.121C243.177 194.897 243.524 194.785 243.929 194.785H245.337C245.753 194.785 246.089 194.886 246.345 195.089C246.612 195.281 246.809 195.532 246.937 195.841L251.113 208.929C251.241 209.27 251.358 209.644 251.465 210.049C251.572 210.444 251.673 210.865 251.769 211.313C251.854 210.865 251.934 210.444 252.009 210.049C252.094 209.644 252.18 209.27 252.265 208.929L255.865 195.841C255.94 195.564 256.121 195.318 256.409 195.105C256.697 194.892 257.044 194.785 257.449 194.785H261.225ZM271.661 207.809C271.661 207.35 271.597 206.913 271.469 206.497C271.352 206.081 271.16 205.713 270.893 205.393C270.627 205.073 270.291 204.822 269.885 204.641C269.48 204.449 268.995 204.353 268.429 204.353C267.373 204.353 266.547 204.652 265.949 205.249C265.352 205.846 264.963 206.7 264.781 207.809H271.661ZM264.717 210.433C264.856 211.98 265.293 213.11 266.029 213.825C266.776 214.54 267.747 214.897 268.941 214.897C269.549 214.897 270.072 214.828 270.509 214.689C270.957 214.54 271.347 214.38 271.677 214.209C272.019 214.028 272.323 213.868 272.589 213.729C272.867 213.58 273.139 213.505 273.405 213.505C273.747 213.505 274.013 213.633 274.205 213.889L275.485 215.491C275.016 216.031 274.499 216.491 273.933 216.851C273.368 217.201 272.781 217.481 272.173 217.701C271.565 217.901 270.952 218.041 270.333 218.111C269.715 218.201 269.117 218.241 268.541 218.241C267.389 218.241 266.312 218.051 265.309 217.681C264.317 217.301 263.448 216.741 262.701 216.001C261.965 215.251 261.384 214.332 260.957 213.233C260.531 212.134 260.317 210.86 260.317 209.409C260.317 208.289 260.499 207.233 260.861 206.241C261.235 205.249 261.768 204.385 262.461 203.649C263.155 202.913 263.997 202.332 264.989 201.905C265.981 201.468 267.101 201.249 268.349 201.249C269.405 201.249 270.376 201.42 271.261 201.761C272.157 202.092 272.925 202.577 273.565 203.217C274.216 203.857 274.717 204.646 275.069 205.585C275.432 206.513 275.613 207.574 275.613 208.769C275.613 209.1 275.597 209.372 275.565 209.585C275.533 209.798 275.48 209.969 275.405 210.097C275.331 210.225 275.229 210.316 275.101 210.369C274.973 210.412 274.808 210.433 274.605 210.433H264.717ZM306.443 194.785V218.001H303.963C303.59 218.001 303.275 217.941 303.019 217.821C302.763 217.701 302.513 217.481 302.267 217.181L290.699 202.465C290.731 202.838 290.753 203.206 290.763 203.569C290.785 203.932 290.795 204.268 290.795 204.577V218.001H286.555V194.785H289.083C289.286 194.785 289.457 194.796 289.595 194.817C289.745 194.828 289.878 194.865 289.995 194.929C290.113 194.982 290.225 195.057 290.331 195.153C290.438 195.249 290.555 195.377 290.683 195.537L302.331 210.321C302.289 209.916 302.257 209.526 302.235 209.153C302.214 208.769 302.203 208.406 302.203 208.065V194.785H306.443ZM320.661 207.809C320.661 207.35 320.597 206.913 320.469 206.497C320.352 206.081 320.16 205.713 319.893 205.393C319.627 205.073 319.291 204.822 318.885 204.641C318.48 204.449 317.995 204.353 317.429 204.353C316.373 204.353 315.547 204.652 314.949 205.249C314.352 205.846 313.963 206.7 313.781 207.809H320.661ZM313.717 210.433C313.856 211.98 314.293 213.11 315.029 213.825C315.776 214.54 316.747 214.897 317.941 214.897C318.549 214.897 319.072 214.828 319.509 214.689C319.957 214.54 320.347 214.38 320.677 214.209C321.019 214.028 321.323 213.868 321.589 213.729C321.867 213.58 322.139 213.505 322.405 213.505C322.747 213.505 323.013 213.633 323.205 213.889L324.485 215.491C324.016 216.031 323.499 216.491 322.933 216.851C322.368 217.201 321.781 217.481 321.173 217.701C320.565 217.901 319.952 218.041 319.333 218.111C318.715 218.201 318.117 218.241 317.541 218.241C316.389 218.241 315.312 218.051 314.309 217.681C313.317 217.301 312.448 216.741 311.701 216.001C310.965 215.251 310.384 214.332 309.957 213.233C309.531 212.134 309.317 210.86 309.317 209.409C309.317 208.289 309.499 207.233 309.861 206.241C310.235 205.249 310.768 204.385 311.461 203.649C312.155 202.913 312.997 202.332 313.989 201.905C314.981 201.468 316.101 201.249 317.349 201.249C318.405 201.249 319.376 201.42 320.261 201.761C321.157 202.092 321.925 202.577 322.565 203.217C323.216 203.857 323.717 204.646 324.069 205.585C324.432 206.513 324.613 207.574 324.613 208.769C324.613 209.1 324.597 209.372 324.565 209.585C324.533 209.798 324.48 209.969 324.405 210.097C324.331 210.225 324.229 210.316 324.101 210.369C323.973 210.412 323.808 210.433 323.605 210.433H313.717ZM337.818 207.809C337.818 207.35 337.754 206.913 337.626 206.497C337.508 206.081 337.316 205.713 337.05 205.393C336.783 205.073 336.447 204.822 336.042 204.641C335.636 204.449 335.151 204.353 334.586 204.353C333.53 204.353 332.703 204.652 332.106 205.249C331.508 205.846 331.119 206.7 330.938 207.809H337.818ZM330.874 210.433C331.012 211.98 331.45 213.11 332.186 213.825C332.932 214.54 333.903 214.897 335.098 214.897C335.706 214.897 336.228 214.828 336.666 214.689C337.114 214.54 337.503 214.38 337.834 214.209C338.175 214.028 338.479 213.868 338.746 213.729C339.023 213.58 339.295 213.505 339.562 213.505C339.903 213.505 340.17 213.633 340.362 213.889L341.642 215.491C341.172 216.031 340.655 216.491 340.09 216.851C339.524 217.201 338.938 217.481 338.33 217.701C337.722 217.901 337.108 218.041 336.49 218.111C335.871 218.201 335.274 218.241 334.698 218.241C333.546 218.241 332.468 218.051 331.466 217.681C330.474 217.301 329.604 216.741 328.858 216.001C328.122 215.251 327.54 214.332 327.114 213.233C326.687 212.134 326.474 210.86 326.474 209.409C326.474 208.289 326.655 207.233 327.018 206.241C327.391 205.249 327.924 204.385 328.618 203.649C329.311 202.913 330.154 202.332 331.146 201.905C332.138 201.468 333.258 201.249 334.506 201.249C335.562 201.249 336.532 201.42 337.418 201.761C338.314 202.092 339.082 202.577 339.722 203.217C340.372 203.857 340.874 204.646 341.226 205.585C341.588 206.513 341.77 207.574 341.77 208.769C341.77 209.1 341.754 209.372 341.722 209.585C341.69 209.798 341.636 209.969 341.562 210.097C341.487 210.225 341.386 210.316 341.258 210.369C341.13 210.412 340.964 210.433 340.762 210.433H330.874ZM354.702 205.793C354.286 205.313 353.833 204.977 353.342 204.785C352.862 204.593 352.35 204.497 351.806 204.497C351.273 204.497 350.787 204.598 350.35 204.801C349.913 205.004 349.534 205.324 349.214 205.761C348.905 206.188 348.665 206.737 348.494 207.409C348.323 208.081 348.238 208.881 348.238 209.809C348.238 210.726 348.307 211.505 348.446 212.145C348.585 212.785 348.782 213.302 349.038 213.697C349.305 214.092 349.625 214.38 349.998 214.561C350.371 214.732 350.787 214.817 351.246 214.817C352.025 214.817 352.675 214.662 353.198 214.353C353.731 214.044 354.233 213.606 354.702 213.041V205.793ZM359.118 194.145V218.001H356.398C355.833 218.001 355.47 217.741 355.31 217.231L354.942 215.791C354.611 216.151 354.259 216.491 353.886 216.781C353.523 217.081 353.129 217.341 352.702 217.571C352.275 217.781 351.817 217.951 351.326 218.061C350.835 218.181 350.302 218.241 349.726 218.241C348.841 218.241 348.03 218.051 347.294 217.681C346.558 217.311 345.918 216.761 345.374 216.051C344.841 215.321 344.425 214.438 344.126 213.393C343.827 212.348 343.678 211.153 343.678 209.809C343.678 208.582 343.843 207.441 344.174 206.385C344.515 205.329 344.995 204.417 345.614 203.649C346.233 202.881 346.979 202.278 347.854 201.841C348.729 201.404 349.699 201.185 350.766 201.185C351.662 201.185 352.414 201.318 353.022 201.585C353.641 201.852 354.201 202.214 354.702 202.673V194.145H359.118Z" fill="white"/>
</g>
<g filter="url(#filter1_d_1791_710)">
<path d="M247.796 240.778V263.998H243.556V249.738C243.556 249.448 243.561 249.128 243.572 248.778C243.593 248.438 243.625 248.098 243.668 247.738L237.028 260.338C236.665 261.028 236.105 261.378 235.348 261.378H234.676C234.303 261.378 233.972 261.288 233.684 261.118C233.396 260.938 233.167 260.678 232.996 260.338L226.324 247.698C226.356 248.068 226.383 248.428 226.404 248.778C226.425 249.128 226.436 249.448 226.436 249.738V263.998H222.196V240.778H225.844C226.047 240.778 226.228 240.788 226.388 240.798C226.548 240.808 226.687 240.838 226.804 240.898C226.932 240.938 227.044 241.008 227.14 241.118C227.247 241.218 227.348 241.348 227.444 241.538L233.94 253.918C234.143 254.288 234.329 254.678 234.5 255.068C234.681 255.468 234.852 255.868 235.012 256.288C235.172 255.858 235.337 255.448 235.508 255.038C235.689 254.628 235.881 254.248 236.084 253.868L242.532 241.538C242.628 241.348 242.729 241.218 242.836 241.118C242.943 241.008 243.055 240.938 243.172 240.898C243.3 240.838 243.439 240.808 243.588 240.798C243.748 240.788 243.935 240.778 244.148 240.778H247.796ZM260.275 257.098C259.197 257.158 258.301 257.248 257.587 257.388C256.872 257.518 256.301 257.688 255.875 257.898C255.459 258.118 255.16 258.358 254.979 258.638C254.808 258.908 254.723 259.198 254.723 259.518C254.723 260.158 254.899 260.608 255.251 260.878C255.613 261.148 256.115 261.278 256.755 261.278C257.491 261.278 258.125 261.148 258.659 260.898C259.203 260.628 259.741 260.218 260.275 259.658V257.098ZM251.283 249.788C252.253 248.918 253.325 248.268 254.499 247.838C255.672 247.398 256.941 247.178 258.307 247.178C259.288 247.178 260.163 247.338 260.931 247.658C261.709 247.978 262.365 248.428 262.899 249.008C263.443 249.568 263.859 250.248 264.147 251.038C264.435 251.828 264.579 252.688 264.579 253.628V263.998H262.563C262.147 263.998 261.827 263.938 261.603 263.818C261.389 263.708 261.213 263.458 261.075 263.088L260.723 262.028C260.307 262.388 259.901 262.708 259.507 262.988C259.123 263.268 258.723 263.498 258.307 263.698C257.891 263.878 257.443 264.018 256.963 264.108C256.493 264.208 255.965 264.258 255.379 264.258C254.653 264.258 253.992 264.158 253.395 263.968C252.797 263.778 252.28 263.488 251.843 263.118C251.416 262.738 251.085 262.258 250.851 261.698C250.616 261.128 250.499 260.478 250.499 259.738C250.499 259.138 250.653 258.528 250.963 257.918C251.272 257.308 251.8 256.758 252.547 256.268C253.304 255.768 254.307 255.358 255.555 255.038C256.813 254.708 258.387 254.518 260.275 254.478V253.628C260.275 252.598 260.056 251.838 259.619 251.358C259.181 250.868 258.552 250.618 257.731 250.618C257.123 250.618 256.616 250.698 256.211 250.848C255.805 250.988 255.448 251.138 255.139 251.308C254.84 251.468 254.557 251.628 254.291 251.778C254.024 251.908 253.715 251.978 253.363 251.978C253.053 251.978 252.792 251.908 252.579 251.758C252.376 251.598 252.205 251.408 252.067 251.198L251.283 249.788ZM272.17 250.218C272.692 249.288 273.295 248.538 273.978 247.998C274.66 247.458 275.46 247.178 276.378 247.178C277.124 247.178 277.732 247.358 278.202 247.708L277.914 250.978C277.86 251.188 277.775 251.338 277.658 251.418C277.551 251.498 277.402 251.538 277.21 251.538C277.039 251.538 276.794 251.508 276.474 251.468C276.154 251.418 275.855 251.388 275.578 251.388C275.172 251.388 274.81 251.448 274.49 251.568C274.18 251.688 273.903 251.848 273.658 252.058C273.412 252.278 273.188 252.538 272.986 252.848C272.794 253.158 272.612 253.508 272.442 253.898V263.998H268.026V247.498H270.634C271.082 247.498 271.391 247.578 271.562 247.738C271.732 247.898 271.855 248.178 271.93 248.578L272.17 250.218ZM284.504 240.138V253.678H285.24C285.517 253.678 285.736 253.638 285.896 253.568C286.056 253.478 286.216 253.328 286.376 253.118L290.024 248.258C290.205 248.008 290.408 247.818 290.632 247.698C290.867 247.568 291.16 247.498 291.512 247.498H295.544L290.808 253.518C290.435 254.018 290.003 254.418 289.512 254.698C289.757 254.868 289.971 255.068 290.152 255.298C290.333 255.518 290.509 255.768 290.68 256.048L295.784 263.998H291.816C291.475 263.998 291.181 263.948 290.936 263.838C290.691 263.718 290.488 263.518 290.328 263.228L286.616 257.168C286.467 256.908 286.312 256.748 286.152 256.668C285.992 256.598 285.752 256.558 285.432 256.558H284.504V263.998H280.088V240.138H284.504ZM307.208 253.808C307.208 253.348 307.144 252.908 307.016 252.498C306.899 252.078 306.707 251.708 306.44 251.388C306.174 251.068 305.838 250.818 305.432 250.638C305.027 250.448 304.542 250.348 303.976 250.348C302.92 250.348 302.094 250.648 301.496 251.248C300.899 251.848 300.51 252.698 300.328 253.808H307.208ZM300.264 256.428C300.403 257.978 300.84 259.108 301.576 259.818C302.323 260.538 303.294 260.898 304.488 260.898C305.096 260.898 305.619 260.828 306.056 260.688C306.504 260.538 306.894 260.378 307.224 260.208C307.566 260.028 307.87 259.868 308.136 259.728C308.414 259.578 308.686 259.498 308.952 259.498C309.294 259.498 309.56 259.628 309.752 259.888L311.032 261.488C310.563 262.028 310.046 262.488 309.48 262.848C308.915 263.198 308.328 263.478 307.72 263.698C307.112 263.898 306.499 264.038 305.88 264.108C305.262 264.198 304.664 264.238 304.088 264.238C302.936 264.238 301.859 264.048 300.856 263.678C299.864 263.298 298.995 262.738 298.248 261.998C297.512 261.248 296.931 260.328 296.504 259.228C296.078 258.128 295.864 256.858 295.864 255.408C295.864 254.288 296.046 253.228 296.408 252.238C296.782 251.248 297.315 250.378 298.008 249.648C298.702 248.908 299.544 248.328 300.536 247.898C301.528 247.468 302.648 247.248 303.896 247.248C304.952 247.248 305.923 247.418 306.808 247.758C307.704 248.088 308.472 248.578 309.112 249.218C309.763 249.858 310.264 250.648 310.616 251.578C310.979 252.508 311.16 253.568 311.16 254.768C311.16 255.098 311.144 255.368 311.112 255.578C311.08 255.798 311.027 255.968 310.952 256.098C310.878 256.218 310.776 256.308 310.648 256.368C310.52 256.408 310.355 256.428 310.152 256.428H300.264ZM330.897 263.998H326.497V250.668H319.185V259.278C319.185 259.738 319.292 260.098 319.505 260.368C319.729 260.628 320.044 260.768 320.449 260.768C320.662 260.768 320.844 260.748 320.993 260.698C321.142 260.648 321.27 260.598 321.377 260.538C321.484 260.478 321.58 260.428 321.665 260.378C321.761 260.328 321.857 260.298 321.953 260.298C322.081 260.298 322.188 260.338 322.273 260.398C322.358 260.448 322.444 260.548 322.529 260.688L323.857 262.798C323.249 263.278 322.561 263.638 321.793 263.888C321.025 264.128 320.23 264.258 319.409 264.258C318.662 264.258 318.001 264.148 317.425 263.938C316.849 263.708 316.364 263.398 315.969 262.988C315.574 262.588 315.276 262.098 315.073 261.518C314.87 260.938 314.769 260.288 314.769 259.568V250.668H313.217C312.982 250.668 312.78 250.598 312.609 250.448C312.449 250.298 312.369 250.068 312.369 249.778V248.048L315.009 247.568L315.905 243.298C316.022 242.818 316.348 242.578 316.881 242.578H319.185V247.598H330.897V263.998ZM331.585 242.778C331.585 243.148 331.51 243.488 331.361 243.818C331.212 244.138 331.009 244.428 330.753 244.668C330.508 244.908 330.214 245.098 329.873 245.248C329.542 245.388 329.185 245.458 328.801 245.458C328.438 245.458 328.092 245.388 327.761 245.248C327.441 245.098 327.158 244.908 326.913 244.668C326.668 244.428 326.47 244.138 326.321 243.818C326.182 243.488 326.113 243.148 326.113 242.778C326.113 242.408 326.182 242.058 326.321 241.738C326.47 241.408 326.668 241.128 326.913 240.878C327.158 240.628 327.441 240.438 327.761 240.298C328.092 240.148 328.438 240.078 328.801 240.078C329.185 240.078 329.542 240.148 329.873 240.298C330.214 240.438 330.508 240.628 330.753 240.878C331.009 241.128 331.212 241.408 331.361 241.738C331.51 242.058 331.585 242.408 331.585 242.778ZM338.778 249.418C339.108 249.098 339.45 248.808 339.802 248.538C340.164 248.278 340.543 248.048 340.938 247.858C341.343 247.658 341.775 247.508 342.234 247.408C342.703 247.298 343.21 247.248 343.754 247.248C344.65 247.248 345.444 247.398 346.138 247.708C346.831 248.018 347.412 248.448 347.882 249.008C348.362 249.558 348.719 250.218 348.954 250.988C349.199 251.758 349.322 252.598 349.322 253.518V263.998H344.922V253.518C344.922 252.598 344.708 251.888 344.282 251.388C343.855 250.878 343.226 250.618 342.394 250.618C341.775 250.618 341.194 250.758 340.65 251.018C340.106 251.288 339.588 251.658 339.098 252.138V263.998H334.682V247.498H337.402C337.956 247.498 338.324 247.758 338.506 248.268L338.778 249.418ZM358.982 255.138C359.889 255.138 360.555 254.908 360.982 254.448C361.419 253.988 361.638 253.398 361.638 252.668C361.638 251.908 361.419 251.318 360.982 250.898C360.555 250.458 359.889 250.238 358.982 250.238C358.075 250.238 357.409 250.458 356.982 250.898C356.555 251.318 356.342 251.908 356.342 252.668C356.342 253.388 356.555 253.978 356.982 254.448C357.419 254.908 358.086 255.138 358.982 255.138ZM363.158 264.668C363.158 264.378 363.067 264.148 362.886 263.968C362.705 263.788 362.459 263.638 362.15 263.538C361.851 263.428 361.494 263.348 361.078 263.308C360.662 263.258 360.219 263.218 359.75 263.198C359.281 263.168 358.795 263.138 358.294 263.118C357.793 263.098 357.302 263.058 356.822 263.008C356.449 263.228 356.139 263.498 355.894 263.808C355.659 264.108 355.542 264.448 355.542 264.828C355.542 265.098 355.601 265.338 355.718 265.568C355.846 265.788 356.054 265.978 356.342 266.138C356.63 266.298 357.009 266.428 357.478 266.508C357.947 266.608 358.534 266.658 359.238 266.658C359.963 266.658 360.577 266.608 361.078 266.508C361.579 266.418 361.985 266.278 362.294 266.098C362.603 265.928 362.822 265.718 362.95 265.468C363.089 265.228 363.158 264.958 363.158 264.668ZM367.542 248.048V249.658C367.542 249.918 367.467 250.118 367.318 250.268C367.179 250.418 366.945 250.528 366.614 250.608L365.27 250.878C365.451 251.398 365.542 251.958 365.542 252.558C365.542 253.378 365.371 254.118 365.03 254.778C364.699 255.428 364.241 255.988 363.654 256.458C363.067 256.918 362.374 257.278 361.574 257.538C360.774 257.778 359.91 257.898 358.982 257.898C358.395 257.898 357.846 257.858 357.334 257.758C356.886 258.038 356.662 258.338 356.662 258.668C356.662 258.978 356.811 259.208 357.11 259.338C357.419 259.478 357.819 259.578 358.31 259.648C358.811 259.698 359.377 259.738 360.006 259.758C360.646 259.768 361.291 259.798 361.942 259.858C362.603 259.908 363.249 260.008 363.878 260.138C364.518 260.268 365.083 260.488 365.574 260.798C366.075 261.098 366.475 261.498 366.774 261.998C367.083 262.498 367.238 263.148 367.238 263.938C367.238 264.668 367.057 265.388 366.694 266.078C366.331 266.768 365.803 267.388 365.11 267.938C364.427 268.478 363.585 268.918 362.582 269.248C361.579 269.578 360.438 269.738 359.158 269.738C357.889 269.738 356.785 269.618 355.846 269.378C354.918 269.138 354.145 268.818 353.526 268.418C352.918 268.018 352.465 267.558 352.166 267.038C351.867 266.518 351.718 265.968 351.718 265.408C351.718 264.668 351.942 264.048 352.39 263.538C352.838 263.018 353.457 262.608 354.246 262.298C353.83 262.068 353.494 261.768 353.238 261.388C352.993 261.008 352.87 260.508 352.87 259.898C352.87 259.408 353.046 258.898 353.398 258.348C353.761 257.808 354.315 257.348 355.062 256.988C354.219 256.538 353.553 255.948 353.062 255.198C352.571 254.438 352.326 253.558 352.326 252.558C352.326 251.738 352.491 250.998 352.822 250.338C353.163 249.668 353.633 249.108 354.23 248.658C354.827 248.188 355.531 247.828 356.342 247.578C357.153 247.338 358.033 247.218 358.982 247.218C360.39 247.218 361.633 247.488 362.71 248.048H367.542Z" fill="white"/>
</g>
<defs>
<filter id="filter0_d_1791_710" x="214.737" y="185.145" width="157.381" height="50.0977" filterUnits="userSpaceOnUse" color-interpolation-filters="sRGB">
<feFlood flood-opacity="0" result="BackgroundImageFix"/>
<feColorMatrix in="SourceAlpha" type="matrix" values="0 0 0 0 0 0 0 0 0 0 0 0 0 0 0 0 0 0 127 0" result="hardAlpha"/>
<feOffset dy="4"/>
<feGaussianBlur stdDeviation="6.5"/>
<feComposite in2="hardAlpha" operator="out"/>
<feColorMatrix type="matrix" values="0 0 0 0 0.608958 0 0 0 0 0.787095 0 0 0 0 0.9875 0 0 0 1 0"/>
<feBlend mode="normal" in2="BackgroundImageFix" result="effect1_dropShadow_1791_710"/>
<feBlend mode="normal" in="SourceGraphic" in2="effect1_dropShadow_1791_710" result="shape"/>
</filter>
<filter id="filter1_d_1791_710" x="209.196" y="231.078" width="171.346" height="55.6602" filterUnits="userSpaceOnUse" color-interpolation-filters="sRGB">
<feFlood flood-opacity="0" result="BackgroundImageFix"/>
<feColorMatrix in="SourceAlpha" type="matrix" values="0 0 0 0 0 0 0 0 0 0 0 0 0 0 0 0 0 0 127 0" result="hardAlpha"/>
<feOffset dy="4"/>
<feGaussianBlur stdDeviation="6.5"/>
<feComposite in2="hardAlpha" operator="out"/>
<feColorMatrix type="matrix" values="0 0 0 0 0.608958 0 0 0 0 0.787095 0 0 0 0 0.9875 0 0 0 1 0"/>
<feBlend mode="normal" in2="BackgroundImageFix" result="effect1_dropShadow_1791_710"/>
<feBlend mode="normal" in="SourceGraphic" in2="effect1_dropShadow_1791_710" result="shape"/>
</filter>
</defs>
</svg>
